<?xml version="1.0" standalone="no"?>
<!DOCTYPE svg PUBLIC "-//W3C//DTD SVG 20010904//EN"
 "http://www.w3.org/TR/2001/REC-SVG-20010904/DTD/svg10.dtd">
<svg version="1.0" xmlns="http://www.w3.org/2000/svg"
 width="1000.000000pt" height="1000.000000pt" viewBox="0 0 1000.000000 1000.000000"
 preserveAspectRatio="xMidYMid meet">
<metadata>
Created by potrace 1.11, written by Peter Selinger 2001-2013
</metadata>
<g transform="translate(0.000000,1000.000000) scale(0.100000,-0.100000)"
fill="#000000" stroke="none">
<path d="M4700 9989 c-396 -23 -811 -100 -1210 -222 -968 -297 -1858 -927
-2485 -1758 -558 -741 -879 -1568 -981 -2534 -24 -223 -24 -729 0 -950 44
-413 128 -806 248 -1160 126 -373 382 -873 623 -1216 579 -824 1364 -1444
2285 -1804 961 -376 2022 -444 3030 -194 371 93 804 254 1100 411 762 404
1391 971 1857 1673 526 791 807 1692 830 2660 29 1215 -383 2386 -1166 3320
-609 725 -1441 1282 -2321 1552 -600 184 -1209 259 -1810 222z m595 -330 c407
-26 784 -99 1167 -225 115 -38 183 -66 220 -92 82 -56 175 -132 231 -186 28
-26 66 -60 86 -75 43 -31 152 -147 230 -246 55 -69 217 -303 255 -368 33 -56
133 -259 160 -327 15 -36 31 -74 36 -85 18 -40 108 -281 120 -320 26 -90 38
-144 49 -210 7 -38 24 -131 38 -205 21 -109 27 -173 31 -330 2 -108 -1 -234
-7 -280 -29 -236 -42 -324 -62 -415 -12 -55 -24 -107 -27 -115 -2 -8 -5 -22
-6 -30 -6 -62 -19 -111 -28 -99 -6 10 -7 7 -3 -8 3 -12 1 -48 -6 -80 -6 -32
-13 -71 -16 -88 -2 -16 -8 -39 -13 -50 -28 -63 -44 -345 -19 -345 4 0 21 12
37 28 101 96 150 126 224 137 35 5 55 3 84 -11 53 -25 102 -81 115 -129 5 -22
13 -47 16 -55 4 -8 7 -22 8 -30 1 -8 5 -45 9 -82 4 -37 11 -70 16 -73 5 -3 53
11 107 31 108 39 256 74 318 74 80 0 210 -53 305 -124 61 -45 234 -156 244
-156 11 0 182 -118 196 -135 7 -8 18 -15 25 -15 7 0 30 -14 51 -30 54 -42 72
-55 128 -97 l49 -36 -7 -116 c-7 -114 -42 -407 -51 -421 -3 -4 -12 -51 -20
-104 -18 -111 -31 -150 -45 -141 -8 5 -7 11 1 21 20 25 -18 17 -41 -8 l-21
-23 23 -5 c35 -9 40 -65 13 -147 -3 -9 -17 -5 -46 12 -33 18 -47 21 -62 14
-24 -14 -32 -6 -13 13 13 13 11 18 -16 38 -22 16 -33 19 -41 11 -14 -14 -57
-15 -57 -1 0 5 11 12 25 16 27 7 34 24 10 24 -8 0 -15 5 -15 11 0 5 -8 9 -18
7 -10 -1 -31 10 -47 25 -31 28 -64 36 -66 15 0 -10 -2 -10 -6 0 -2 6 -9 10
-14 6 -5 -3 -16 2 -25 10 -8 9 -27 19 -42 23 -27 6 -61 39 -62 58 0 11 -10 13
-77 15 -21 1 -47 7 -58 14 -11 7 -33 15 -50 18 -85 15 -201 40 -209 46 -6 3
-46 7 -89 8 -63 1 -80 5 -92 20 -10 14 -17 16 -25 8 -13 -13 -77 15 -96 42
-10 12 -14 8 -25 -27 -17 -52 -27 -56 -64 -27 -32 25 -39 27 -113 33 -36 3
-54 0 -56 -8 -2 -7 -13 -50 -26 -97 -12 -47 -25 -94 -30 -105 -4 -11 -16 -42
-25 -70 -10 -27 -33 -90 -52 -140 -20 -49 -42 -130 -50 -180 -10 -65 -23 -104
-44 -140 -28 -46 -38 -54 -107 -81 -71 -28 -85 -31 -171 -27 -73 3 -100 8
-121 23 l-27 19 27 105 c15 57 31 109 34 115 4 6 3 11 -2 11 -12 0 -29 -43
-38 -92 -3 -21 -11 -38 -16 -38 -6 0 -7 -8 -3 -17 5 -14 4 -15 -6 -6 -10 10
-10 18 0 39 18 41 4 41 -20 0 -16 -27 -24 -34 -34 -26 -9 8 -14 6 -19 -5 -4
-10 -2 -14 5 -9 7 4 9 0 5 -12 -9 -29 -16 -153 -9 -169 10 -29 25 -15 18 17
l-6 33 16 -28 c14 -24 14 -31 3 -44 -7 -9 -11 -26 -10 -38 2 -13 -4 -39 -12
-59 -8 -20 -13 -36 -10 -36 3 0 0 -9 -6 -20 -6 -11 -13 -37 -16 -57 -2 -20
-13 -72 -24 -116 -11 -44 -20 -88 -20 -98 0 -10 -4 -20 -9 -23 -9 -6 -7 35 5
85 10 42 -22 31 -42 -15 -10 -23 -29 -51 -41 -63 -13 -12 -23 -29 -23 -37 0
-15 -19 -33 -21 -19 0 4 -2 19 -3 33 -3 29 13 60 32 60 12 0 27 29 34 65 4 24
-19 31 -25 8 -3 -10 -3 -1 0 20 5 36 4 37 -26 37 -17 0 -31 -4 -31 -10 0 -5
-13 -10 -30 -10 -16 0 -30 -4 -30 -10 0 -5 14 -10 30 -10 35 0 36 -3 13 -29
-57 -61 -66 -77 -67 -118 -1 -61 -22 -54 -30 9 -11 83 -63 120 -84 61 -6 -16
-11 -21 -11 -12 -1 12 -13 18 -41 21 -22 2 -44 0 -49 -5 -5 -5 -13 5 -19 22
-10 29 -42 44 -42 19 0 -6 -8 -2 -17 9 -10 11 -28 23 -40 27 -13 4 -23 11 -23
15 0 10 -55 71 -63 71 -4 0 -7 -7 -7 -15 0 -8 5 -15 11 -15 5 0 7 -5 4 -10 -5
-7 -11 -8 -19 -1 -7 6 -17 6 -26 1 -21 -14 -30 -12 -30 5 0 8 6 15 13 15 6 0
4 6 -7 12 -31 18 -56 42 -56 54 0 6 -18 19 -40 30 -46 22 -47 40 -1 36 38 -3
39 1 6 22 -23 15 -27 15 -50 0 -16 -10 -34 -14 -50 -10 -36 9 -32 30 5 23 17
-4 30 -2 30 3 0 6 -13 10 -30 10 -16 0 -30 3 -30 8 -1 13 -50 67 -50 54 0 -7
9 -20 20 -29 26 -23 26 -43 -1 -43 -19 0 -100 60 -82 60 4 0 0 5 -9 11 -10 5
-18 16 -18 23 0 21 -27 40 -34 24 -5 -10 -7 -10 -12 0 -3 6 -12 12 -20 12 -8
0 -14 5 -14 10 0 6 -11 10 -25 10 -14 0 -25 5 -25 10 0 6 -13 10 -30 10 -23 0
-30 4 -30 20 0 12 7 20 18 20 25 1 -24 37 -60 45 -16 4 -28 13 -28 21 0 8 -6
14 -12 12 -7 -1 -25 6 -40 16 -16 10 -35 16 -43 12 -10 -3 -15 1 -15 14 0 10
-5 22 -11 26 -14 9 -8 -62 16 -191 11 -61 15 -116 11 -172 -4 -64 -2 -84 9
-93 12 -10 13 -16 4 -26 -9 -11 -6 -14 16 -14 22 0 25 -3 16 -13 -14 -17 -4
-27 25 -27 17 0 21 -4 17 -20 -3 -13 1 -22 11 -26 12 -5 14 -10 6 -20 -9 -10
-3 -21 26 -48 34 -32 36 -36 17 -36 -12 0 -24 -4 -27 -9 -4 -5 3 -7 13 -4 25
6 33 -25 13 -49 -13 -16 -13 -18 1 -18 17 0 22 -11 10 -23 -3 -4 -12 -2 -18 3
-9 8 -12 4 -12 -14 0 -22 1 -23 14 -10 8 7 17 14 21 14 22 -1 70 -65 58 -77
-8 -9 -27 8 -37 34 -12 33 -23 22 -26 -28 -2 -24 4 -51 14 -67 l17 -27 -28 25
c-15 14 -34 37 -42 53 -8 15 -19 27 -25 27 -8 0 -7 -5 1 -15 10 -12 10 -15 -1
-15 -8 0 -5 -6 7 -14 10 -8 16 -18 12 -22 -4 -4 -14 -1 -23 6 -11 9 -15 9 -15
1 0 -7 -5 -9 -12 -5 -17 11 -48 13 -48 4 0 -4 14 -13 30 -20 30 -12 44 -38 15
-26 -24 9 -18 -5 18 -42 24 -25 27 -31 12 -26 -11 4 -26 14 -32 22 -7 9 -13
13 -13 9 0 -12 24 -51 39 -63 12 -9 11 -12 -4 -18 -21 -8 -46 11 -43 32 2 9
-5 18 -16 20 -11 2 -16 0 -12 -7 5 -7 1 -9 -8 -5 -9 3 -16 1 -16 -6 0 -12 -24
-40 -36 -40 -3 0 -1 7 6 15 20 24 2 31 -19 7 -21 -25 -40 -30 -20 -5 11 13 11
17 2 20 -7 3 -13 13 -13 24 0 21 -30 60 -41 53 -4 -2 -5 15 -2 38 4 29 3 39
-5 34 -13 -8 -59 30 -50 40 3 3 0 17 -7 31 -18 35 -8 130 18 166 13 20 16 32
9 39 -7 7 -7 19 -2 33 5 13 7 25 4 28 -2 2 16 12 40 21 87 33 142 136 82 152
-14 3 -29 3 -34 0 -5 -3 -30 6 -56 20 l-47 25 -62 -22 c-34 -13 -71 -28 -82
-35 -31 -19 -177 -25 -193 -8 -7 8 -25 16 -40 19 -15 4 -36 11 -47 17 -14 8
-20 8 -23 -1 -9 -28 -117 10 -117 41 0 7 -9 14 -19 16 -11 2 -28 14 -38 26
-15 18 -19 19 -28 6 -8 -11 -9 -8 -4 12 5 22 3 28 -11 28 -9 0 -26 11 -36 24
-14 17 -25 22 -46 19 -27 -5 -27 -5 -8 11 19 16 19 16 -6 10 -23 -5 -32 1 -59
35 -18 22 -50 52 -71 67 -22 15 -39 33 -39 40 0 8 -3 13 -7 13 -34 -6 -53 3
-53 24 0 17 -2 19 -10 7 -16 -26 -25 1 -21 65 2 29 2 29 16 11 15 -19 15 -19
15 2 0 12 4 22 10 22 5 0 9 10 8 23 -2 38 22 107 37 107 8 0 15 -5 15 -10 0
-7 8 -7 22 1 22 12 22 12 2 28 -11 9 -23 24 -27 33 -5 15 0 18 31 19 58 1 73
6 103 35 19 18 39 27 60 27 25 0 35 8 55 38 13 21 24 49 24 62 0 13 6 29 13
35 15 16 17 199 2 210 -5 4 -10 35 -10 69 -1 50 -5 65 -20 77 -19 14 -19 15
-2 22 13 5 15 9 7 14 -9 5 -9 13 -2 26 7 13 6 22 -4 32 -11 10 -12 18 -4 27 6
7 8 20 4 29 -4 10 -1 16 9 16 10 0 13 7 10 21 -4 14 0 22 14 25 15 4 18 12 15
36 -5 35 16 81 35 74 7 -3 15 -1 18 5 4 5 0 12 -9 15 -26 10 -6 36 22 29 22
-5 24 -4 13 9 -8 9 -10 17 -5 18 43 7 74 20 69 29 -3 4 8 15 24 24 33 17 136
21 126 5 -4 -6 12 -10 42 -10 l48 -1 -35 -31 c-35 -30 -35 -30 -7 -24 16 4 27
2 27 -4 0 -5 8 -10 17 -10 9 0 13 -3 10 -6 -4 -4 9 -37 27 -73 53 -103 59
-117 52 -139 -4 -11 -3 -29 3 -39 5 -10 15 -45 21 -78 7 -33 16 -69 20 -80 5
-11 11 -32 14 -47 5 -21 10 -26 24 -21 14 6 15 4 5 -8 -14 -17 -1 -45 17 -34
7 4 25 -7 45 -29 22 -24 42 -36 59 -36 18 0 30 -7 36 -22 8 -22 9 -22 9 -3 1
12 7 27 13 33 10 10 10 15 -1 21 -9 6 -5 10 16 14 15 3 32 1 37 -4 6 -6 6 -9
-2 -9 -17 0 -15 -27 3 -34 8 -3 15 -12 15 -21 0 -8 10 -16 23 -17 12 -1 31 -3
42 -4 11 -1 26 -2 33 -3 7 -1 10 -5 7 -11 -3 -5 -1 -18 5 -27 11 -17 11 -17 6
0 -3 11 0 17 9 17 8 0 15 -9 15 -20 0 -11 5 -20 11 -20 5 0 7 5 4 10 -11 18
11 11 29 -9 11 -12 38 -21 72 -26 32 -4 54 -11 54 -19 0 -26 22 -35 46 -20 24
17 75 16 74 -1 -1 -5 -13 -9 -27 -8 -14 1 -22 -1 -18 -5 4 -4 23 -7 43 -7 24
0 36 -4 35 -12 -2 -7 2 -13 7 -13 6 0 10 8 10 19 0 15 8 18 41 18 25 0 36 -3
28 -8 -27 -16 1 -21 32 -5 39 19 73 21 66 4 -3 -9 6 -13 25 -14 16 -1 40 -7
54 -14 13 -7 27 -10 31 -5 5 4 2 10 -4 12 -7 3 -13 14 -13 25 0 18 4 20 45 13
25 -3 71 -1 101 5 48 10 63 9 101 -5 24 -9 47 -14 50 -11 3 3 -2 9 -12 12 -19
8 -65 48 -65 57 0 4 18 11 40 17 36 10 95 6 197 -11 25 -4 23 5 -11 34 -34 31
-36 36 -26 61 6 16 8 38 4 49 -4 12 -2 17 4 13 6 -4 23 -4 37 0 21 5 23 9 14
20 -15 19 17 57 42 51 10 -3 28 2 40 11 12 9 30 16 38 17 26 2 84 42 72 49
-33 21 24 45 115 51 30 2 60 8 67 13 7 5 22 13 35 16 12 4 22 12 22 17 0 5 10
13 23 18 13 5 38 21 55 36 27 23 30 30 20 42 -10 12 -9 17 5 24 20 12 23 29 4
29 -19 0 -38 -37 -32 -63 7 -29 -37 -49 -160 -72 -49 -10 -96 -22 -103 -28
-10 -8 -19 -7 -34 2 -11 7 -17 8 -14 3 6 -10 -15 -22 -40 -22 -24 0 -16 20 16
38 42 24 40 74 -1 51 -15 -7 -19 -6 -19 6 0 8 5 15 11 15 7 0 18 8 26 18 14
16 14 16 10 -4 -2 -12 3 -31 12 -43 16 -21 18 -21 49 -6 18 9 32 24 32 32 0 9
14 29 30 45 35 33 37 44 10 53 -22 7 -26 20 -10 30 6 3 10 1 10 -5 0 -7 6 -10
13 -8 19 7 18 154 -1 201 -14 33 -14 40 -1 48 11 8 10 9 -5 7 -23 -4 -46 33
-46 75 0 32 -6 33 -33 10 -18 -17 -20 -17 -42 10 -17 23 -23 26 -28 14 -4 -10
-13 -13 -28 -10 -19 5 -20 4 -10 -16 7 -12 16 -19 22 -16 15 10 10 -11 -6 -25
-12 -10 -18 -9 -31 5 -11 10 -19 13 -23 6 -4 -5 -15 3 -26 19 -11 17 -23 30
-27 30 -4 0 -5 7 -2 15 8 20 33 19 56 -2 17 -15 18 -15 18 0 0 10 -7 17 -16
17 -14 0 -14 3 -4 15 9 10 9 15 1 15 -6 0 -11 -4 -11 -10 0 -16 -26 -12 -42 8
-16 18 -14 82 3 82 16 0 -3 30 -20 31 -13 0 -12 2 3 8 33 13 3 20 -41 11 -71
-16 -178 17 -170 52 1 6 -4 13 -10 15 -7 3 -13 -2 -13 -11 0 -9 -5 -16 -11
-16 -6 0 -9 9 -6 19 3 14 1 18 -10 14 -8 -3 -12 -11 -10 -17 3 -8 -7 -12 -29
-12 -19 1 -34 3 -34 6 0 3 -14 5 -30 6 -30 1 -41 -11 -17 -19 9 -3 9 -7 -2
-20 -13 -16 -15 -16 -27 0 -8 11 -9 22 -3 28 16 16 10 25 -17 25 -18 0 -25 -4
-21 -14 3 -8 -1 -17 -9 -20 -24 -9 -86 -7 -80 2 3 5 19 7 36 4 20 -3 30 0 30
8 0 13 -52 10 -109 -6 -20 -6 -23 -4 -18 9 3 9 1 18 -6 21 -7 3 -3 5 8 5 11
-1 31 3 45 7 24 8 24 8 -10 15 -20 4 -40 3 -47 -2 -8 -7 -13 -4 -18 10 -5 18
-25 30 -25 17 0 -2 -3 -11 -6 -19 -3 -8 2 -22 11 -31 9 -9 14 -23 11 -31 -10
-26 -26 -16 -26 15 0 28 -3 30 -37 30 -22 0 -45 8 -57 19 -17 16 -29 18 -68
12 -36 -6 -48 -5 -48 5 0 16 -31 27 -43 15 -7 -7 -17 -7 -29 0 -11 6 -36 8
-56 5 -20 -3 -39 -5 -41 -6 -3 0 5 -9 17 -20 12 -12 22 -22 22 -24 0 -1 -15
-2 -34 -1 -37 1 -66 19 -66 41 0 8 -7 14 -15 14 -8 0 -15 -9 -15 -20 0 -24
-15 -27 -24 -4 -3 8 -16 15 -28 14 -36 -3 -44 0 -28 10 8 5 11 13 6 17 -5 4
-11 2 -14 -6 -11 -32 -40 -50 -69 -42 -15 4 -34 6 -41 4 -7 -3 -19 0 -27 7
-11 9 -16 7 -25 -10 -8 -15 -18 -20 -31 -17 -10 3 -16 1 -13 -4 10 -17 -27
-22 -44 -6 -15 15 -17 15 -34 0 -18 -16 -19 -16 -24 5 -8 27 -42 50 -74 47
-35 -2 -27 -19 12 -26 38 -7 36 -10 -12 -14 -19 -2 -38 2 -42 9 -6 8 -12 8
-27 -1 -15 -9 -23 -9 -36 1 -10 7 -15 18 -11 24 3 6 -3 14 -15 17 -22 7 -43
-5 -21 -12 14 -6 16 -39 2 -48 -5 -3 -10 -2 -10 3 0 11 -68 32 -72 22 -5 -13
-68 -23 -68 -11 0 6 -7 8 -15 5 -8 -4 -42 2 -75 12 -44 14 -58 23 -55 34 3 8
-4 21 -15 28 -17 10 -21 10 -26 -3 -4 -8 -14 -15 -23 -16 -13 0 -14 -2 -1 -6
22 -9 84 -73 77 -80 -4 -3 -19 3 -34 13 -15 10 -31 18 -35 16 -4 -1 -5 5 -2
13 4 9 -4 19 -22 27 -15 7 -39 25 -54 39 -15 15 -47 33 -71 40 -56 16 -56 16
-33 33 18 14 18 15 -11 22 -17 3 -38 14 -48 22 -14 13 -20 13 -26 4 -8 -13
-41 -6 -41 9 0 5 9 9 21 9 11 0 18 4 14 10 -4 6 -15 6 -31 0 -40 -15 -74 -13
-68 5 5 12 -2 15 -30 15 -20 0 -36 5 -36 11 0 6 -7 8 -16 5 -13 -5 -15 -2 -11
14 4 16 2 20 -12 15 -9 -3 -26 2 -37 10 -10 8 -37 15 -59 16 -22 1 -32 3 -22
6 31 8 18 22 -20 20 -24 -1 -42 3 -49 13 -9 11 -15 12 -26 3 -10 -9 -19 -7
-38 7 -14 11 -33 20 -42 20 -10 0 -18 6 -18 13 -1 12 -83 67 -101 67 -5 0 -9
5 -9 10 0 6 -11 16 -25 22 -14 6 -25 17 -25 23 0 23 -30 40 -48 28 -20 -12
-41 4 -34 26 3 9 -2 11 -16 7 -24 -8 -72 19 -72 40 0 8 -7 14 -15 14 -8 0 -15
5 -15 10 0 6 -6 10 -14 10 -7 0 -19 6 -25 14 -7 8 -26 18 -42 21 -30 7 -46 22
-35 33 4 3 20 -2 35 -11 38 -22 41 -22 28 8 -7 14 -19 26 -27 26 -8 1 -26 3
-40 4 -14 1 -42 10 -64 19 -21 9 -49 16 -62 16 -12 0 -26 5 -29 10 -3 6 1 10
9 10 9 0 16 5 16 10 0 6 11 10 25 10 14 0 25 -4 25 -10 0 -5 11 -10 25 -10 14
0 28 -7 32 -16 4 -11 8 -12 13 -4 6 10 23 7 71 -9 35 -12 92 -31 127 -42 34
-11 62 -24 62 -28 0 -9 29 -20 68 -26 33 -5 18 10 -33 35 -49 23 -61 44 -20
34 31 -8 34 15 5 36 -11 8 -20 18 -20 23 0 14 -22 31 -75 56 -27 13 -45 26
-38 28 7 2 21 -1 32 -7 25 -13 27 -7 5 15 -21 21 -9 33 13 13 47 -40 61 -27
18 16 -14 14 -25 30 -25 36 0 5 -4 10 -10 10 -5 0 -10 6 -10 14 0 13 -66 46
-91 46 -21 0 -95 39 -112 60 -21 25 -15 40 14 33 14 -4 17 -8 9 -13 -8 -5 -2
-10 14 -14 14 -3 26 -13 26 -21 0 -9 9 -15 24 -15 13 0 27 -6 29 -12 4 -10 6
-10 6 -1 1 7 -8 21 -20 32 l-21 19 21 7 c11 3 26 3 32 -1 7 -4 30 -8 52 -10
23 -2 45 -8 51 -14 5 -5 23 -10 38 -10 16 0 45 -7 66 -16 40 -17 94 -35 160
-53 23 -6 42 -16 42 -20 0 -10 50 -25 57 -17 3 3 -11 12 -31 20 -20 8 -36 20
-36 25 0 6 -8 11 -19 11 -22 0 -45 25 -36 40 3 5 0 10 -9 10 -8 0 -16 -5 -18
-12 -3 -8 -12 -6 -30 8 l-26 19 26 17 26 17 -28 10 c-15 6 -34 11 -42 11 -8 0
-12 5 -9 10 3 6 18 10 33 10 24 1 25 2 9 11 -10 6 -29 8 -43 5 -14 -4 -24 -2
-24 4 0 6 -15 17 -32 25 -28 12 -29 14 -10 15 12 0 22 4 22 9 0 13 -25 20 -47
15 -13 -4 -23 3 -32 20 -11 19 -17 22 -30 14 -13 -8 -27 -5 -56 10 -90 47
-131 65 -142 63 -19 -3 -27 21 -9 31 22 12 20 28 -4 28 -13 0 -26 -12 -37 -35
-19 -40 -20 -40 -59 -20 -21 10 -31 11 -41 3 -8 -6 -16 -8 -20 -4 -12 11 6 19
57 24 58 5 67 21 13 23 -21 1 -30 3 -20 6 14 4 16 8 6 19 -9 11 -8 14 3 14 8
0 18 -4 23 -9 6 -5 53 -12 105 -15 53 -3 109 -10 125 -15 17 -5 66 -12 110
-15 99 -8 114 -10 195 -24 36 -7 111 -19 168 -27 56 -8 114 -22 128 -31 23
-16 24 -15 18 1 -7 16 -3 17 34 12 27 -3 42 -1 42 6 0 6 -3 7 -7 4 -3 -4 -14
0 -24 9 -12 11 -28 15 -46 11 -15 -3 -43 1 -62 9 -18 8 -37 11 -42 8 -5 -3
-16 2 -25 10 -8 9 -28 16 -44 16 -16 0 -35 3 -44 6 -23 9 -20 27 4 21 11 -3
20 -1 20 4 0 9 -20 15 -90 23 -25 3 -56 9 -69 12 -16 5 -22 4 -17 -4 9 -14 -7
-23 -24 -12 -11 7 -11 11 3 24 8 9 23 16 32 16 15 0 15 1 0 16 -9 10 -24 14
-38 10 -14 -3 -33 1 -46 10 -12 9 -29 13 -37 10 -8 -3 -17 1 -20 9 -4 8 -11
15 -17 15 -6 0 -18 7 -27 15 -13 12 -23 13 -43 6 -15 -6 -38 -7 -56 -1 -16 4
-46 4 -67 0 -39 -9 -54 -6 -54 10 0 5 14 7 30 4 41 -9 38 10 -6 32 -20 11 -44
23 -55 29 -23 12 -25 25 -3 25 13 0 11 5 -9 24 -17 16 -33 22 -50 19 -14 -3
-28 0 -31 6 -5 8 -13 8 -26 1 -21 -11 -50 -3 -50 14 0 6 -13 13 -30 14 -33 3
-40 -12 -13 -26 13 -8 11 -9 -10 -9 -30 0 -37 26 -14 45 15 13 196 22 203 10
3 -4 0 -8 -6 -8 -6 0 -8 -5 -4 -11 5 -8 12 -4 23 10 20 27 38 28 116 11 33 -8
63 -13 68 -12 4 1 7 -2 7 -7 0 -5 15 -5 34 -1 19 4 37 5 40 2 4 -3 6 -1 6 5 0
6 -15 14 -34 17 -23 5 -36 13 -40 29 -6 20 -8 20 -19 6 -20 -26 -40 -27 -67
-2 -14 13 -29 23 -33 23 -5 0 -15 7 -23 15 -9 8 -27 18 -42 22 -15 3 -40 19
-55 35 -16 15 -35 28 -43 28 -8 0 -13 3 -13 8 4 26 -2 31 -19 15 -11 -12 -14
-21 -8 -25 20 -13 -3 -20 -41 -13 -23 5 -31 10 -20 12 20 5 22 19 5 29 -17 11
-119 5 -152 -8 -18 -7 -31 -8 -33 -2 -9 26 -23 36 -52 39 -18 1 -37 7 -44 14
-6 6 -20 11 -31 12 -19 0 -19 1 2 10 24 9 22 29 -4 29 -17 0 -18 5 -2 30 11
16 9 22 -7 34 -19 14 -19 15 13 22 41 8 48 20 22 36 -23 14 -26 34 -7 41 7 3
2 9 -13 14 l-24 10 22 12 c27 14 28 29 5 47 -15 10 -16 16 -6 32 13 22 0 42
-28 42 -11 0 -18 10 -21 30 -3 17 -1 30 4 30 13 0 9 40 -4 41 -7 0 -2 4 10 10
13 5 27 7 32 4 12 -7 33 22 25 35 -5 7 -12 5 -21 -7 -13 -17 -15 -17 -29 1
-22 29 -19 36 15 36 32 0 33 1 24 24 -8 21 -64 22 -64 1 0 -17 -2 -18 -24 -9
-22 8 -20 21 4 29 11 3 20 15 20 25 0 10 -9 22 -20 25 -20 6 -28 25 -11 25 19
0 24 42 7 52 -11 6 -14 14 -7 26 4 9 6 22 4 29 -2 6 1 14 6 18 21 12 11 27
-14 21 -18 -5 -25 -2 -25 8 0 7 9 16 20 19 11 3 20 10 20 16 0 17 -36 13 -51
-5 -7 -9 -24 -20 -37 -25 -13 -5 -21 -13 -18 -18 9 -13 -26 -23 -38 -11 -8 8
-7 14 4 21 11 8 7 9 -15 5 l-30 -6 28 17 c27 17 39 40 15 29 -7 -3 -21 -9 -30
-12 -10 -4 -18 -13 -18 -20 0 -9 -12 -14 -34 -14 -44 0 -51 -11 -23 -40 16
-19 18 -22 4 -17 -27 10 -21 -18 8 -37 13 -9 29 -16 35 -16 15 0 12 40 -2 41
-10 0 -10 2 0 6 6 2 12 11 12 19 0 19 10 18 30 -3 16 -17 15 -20 -8 -55 -24
-38 -45 -47 -57 -28 -13 21 -35 10 -36 -17 -1 -27 -1 -26 -11 6 -5 19 -7 43
-5 53 3 10 1 18 -4 18 -4 0 -6 20 -4 45 4 37 1 46 -16 55 -16 9 -19 17 -14 41
6 25 3 31 -14 36 -23 6 -28 19 -10 25 7 2 5 9 -5 18 -14 11 -17 11 -14 0 2 -9
-9 -16 -26 -19 -33 -7 -37 -21 -9 -33 10 -5 -8 -7 -45 -5 -41 2 -67 8 -72 17
-5 8 -11 12 -14 9 -3 -3 3 -15 14 -27 13 -14 16 -23 9 -28 -6 -3 -15 0 -20 7
-5 8 -9 9 -9 3 0 -6 -19 -11 -42 -12 -31 -1 -39 1 -28 8 11 7 12 12 4 20 -8 8
-8 18 0 36 12 26 22 29 46 14 9 -6 17 -5 21 2 6 9 12 8 23 -1 9 -7 23 -11 31
-7 9 3 14 2 11 -2 -8 -13 11 -35 23 -28 19 12 -11 46 -40 46 -19 0 -28 6 -32
21 -5 19 -10 21 -42 15 -28 -6 -36 -4 -33 6 3 7 13 15 24 17 19 3 34 18 34 36
0 5 -5 4 -12 -3 -17 -17 -41 -15 -34 3 3 8 0 15 -5 15 -6 0 -9 -9 -6 -20 7
-29 -27 -36 -53 -10 -11 11 -18 25 -15 30 3 5 -1 7 -9 4 -8 -3 -16 2 -19 13
-4 16 -5 15 -6 -2 0 -12 4 -26 11 -33 6 -6 8 -15 4 -19 -4 -5 -14 0 -21 10
-13 18 -14 17 -29 -10 l-15 -29 42 6 c41 6 87 -11 87 -31 0 -15 -30 -10 -36 6
-4 8 -9 13 -13 10 -4 -2 -26 -5 -49 -6 -35 -3 -44 -8 -56 -33 -11 -22 -16 -25
-16 -13 0 30 134 264 199 346 15 20 34 47 41 60 31 60 203 244 367 394 45 40
119 77 333 164 645 262 1358 378 2045 332z m-2735 -1269 c0 -5 -4 -10 -10 -10
-5 0 -10 5 -10 10 0 6 5 10 10 10 6 0 10 -4 10 -10z m-102 -31 c-2 -6 -8 -10
-13 -10 -5 0 -11 4 -13 10 -2 6 4 11 13 11 9 0 15 -5 13 -11z m-189 -83 c-29
-49 -34 -46 -9 5 12 23 24 39 26 36 3 -2 -5 -21 -17 -41z m372 14 c24 -13 26
-43 2 -38 -10 2 -17 10 -15 18 2 7 -3 17 -10 21 -19 12 0 11 23 -1z m-187 -41
c-12 -13 -20 -16 -22 -9 -3 7 2 16 9 21 25 16 32 9 13 -12z m316 11 c0 -5 -7
-10 -16 -10 -8 0 -12 5 -9 10 3 6 10 10 16 10 5 0 9 -4 9 -10z m-220 -4 c0 -3
-4 -8 -10 -11 -5 -3 -10 -1 -10 4 0 6 5 11 10 11 6 0 10 -2 10 -4z m485 -26
c-3 -5 -11 -10 -16 -10 -6 0 -7 5 -4 10 3 6 11 10 16 10 6 0 7 -4 4 -10z
m-638 -22 c-3 -8 -6 -5 -6 6 -1 11 2 17 5 13 3 -3 4 -12 1 -19z m-160 -10 c-3
-8 -6 -5 -6 6 -1 11 2 17 5 13 3 -3 4 -12 1 -19z m193 2 c0 -5 -2 -10 -4 -10
-3 0 -8 5 -11 10 -3 6 -1 10 4 10 6 0 11 -4 11 -10z m40 0 c0 -5 -4 -10 -10
-10 -5 0 -10 5 -10 10 0 6 5 10 10 10 6 0 10 -4 10 -10z m128 -6 c44 -5 36
-14 -11 -14 -44 0 -56 7 -41 23 4 4 12 3 17 0 6 -4 22 -8 35 -9z m446 -9 c4
-13 2 -14 -14 -5 -16 9 -20 8 -20 -5 0 -9 -9 -15 -22 -15 l-23 1 24 19 c28 24
47 25 55 5z m-843 -72 c-25 -47 -27 -29 -4 29 11 27 19 37 21 26 2 -9 -6 -34
-17 -55z m206 61 c-3 -3 -12 -4 -19 -1 -8 3 -5 6 6 6 11 1 17 -2 13 -5z m33
-4 c0 -5 -5 -10 -11 -10 -5 0 -7 5 -4 10 3 6 8 10 11 10 2 0 4 -4 4 -10z m105
-1 c20 0 45 -16 45 -29 0 -9 -95 21 -107 34 -5 5 2 6 17 2 14 -4 34 -8 45 -7z
m225 -9 c0 -5 -4 -10 -10 -10 -5 0 -10 5 -10 10 0 6 5 10 10 10 6 0 10 -4 10
-10z m-280 -20 c0 -5 -2 -10 -4 -10 -3 0 -8 5 -11 10 -3 6 -1 10 4 10 6 0 11
-4 11 -10z m270 -50 c-6 -11 -15 -20 -20 -20 -14 0 -12 27 3 33 23 10 28 7 17
-13z m-290 0 c0 -5 -4 -10 -10 -10 -5 0 -10 5 -10 10 0 6 5 10 10 10 6 0 10
-4 10 -10z m-70 -34 c0 -3 -4 -8 -10 -11 -5 -3 -10 -1 -10 4 0 6 5 11 10 11 6
0 10 -2 10 -4z m230 -26 c0 -11 -4 -20 -9 -20 -11 0 -22 26 -14 34 12 12 23 5
23 -14z m-46 -15 c-4 -8 -10 -15 -15 -15 -5 0 -9 7 -9 15 0 8 7 15 15 15 9 0
12 -6 9 -15z m112 -12 c-10 -10 -19 5 -10 18 6 11 8 11 12 0 2 -7 1 -15 -2
-18z m24 -34 c0 -5 -9 -9 -20 -9 -22 0 -27 16 -7 23 15 5 27 -1 27 -14z m327
-15 c-3 -3 -12 -4 -19 -1 -8 3 -5 6 6 6 11 1 17 -2 13 -5z m-220 -96 c-3 -8
-6 -5 -6 6 -1 11 2 17 5 13 3 -3 4 -12 1 -19z m603 -518 c0 -5 -7 -10 -15 -10
-8 0 -15 5 -15 10 0 6 7 10 15 10 8 0 15 -4 15 -10z m-145 -10 c-3 -5 -11 -10
-16 -10 -6 0 -7 5 -4 10 3 6 11 10 16 10 6 0 7 -4 4 -10z m-35 -4 c0 -3 -4 -8
-10 -11 -5 -3 -10 -1 -10 4 0 6 5 11 10 11 6 0 10 -2 10 -4z m118 -33 c-10 -2
-28 -2 -40 0 -13 2 -5 4 17 4 22 1 32 -1 23 -4z m172 -7 c0 -11 -19 -15 -25
-6 -3 5 1 10 9 10 9 0 16 -2 16 -4z m143 -36 c16 0 18 -3 10 -11 -14 -14 -63
-4 -63 12 0 6 7 8 16 5 9 -3 25 -6 37 -6z m-325 -6 c12 -2 22 -11 22 -18 0
-14 -56 -39 -95 -42 -23 -2 -37 15 -27 31 4 5 7 13 8 18 1 4 2 9 3 10 2 6 64
6 89 1z m2 -84 c-12 -8 -12 -10 4 -16 25 -9 1 -24 -39 -23 l-30 0 25 12 25 11
-30 4 c-30 5 -30 5 -5 12 14 5 34 8 45 9 16 1 17 -1 5 -9z m-157 -37 c-7 -2
-19 -2 -25 0 -7 3 -2 5 12 5 14 0 19 -2 13 -5z m317 -58 c-7 -9 -15 -13 -19
-10 -3 3 1 10 9 15 21 14 24 12 10 -5z m110 6 c0 -17 -31 -21 -63 -7 l-32 14
48 1 c26 1 47 -3 47 -8z m-170 -41 c0 -5 -5 -10 -11 -10 -5 0 -7 5 -4 10 3 6
8 10 11 10 2 0 4 -4 4 -10z m225 -11 c5 -5 1 -9 -12 -9 -11 0 -27 7 -34 16
-12 15 -11 16 11 9 14 -4 29 -11 35 -16z m245 -73 c0 -3 -4 -8 -10 -11 -5 -3
-10 -1 -10 4 0 6 5 11 10 11 6 0 10 -2 10 -4z m233 -123 c-7 -2 -19 -2 -25 0
-7 3 -2 5 12 5 14 0 19 -2 13 -5z m47 -3 c0 -5 -2 -10 -4 -10 -3 0 -8 5 -11
10 -3 6 -1 10 4 10 6 0 11 -4 11 -10z m-560 -90 c0 -13 -50 -13 -70 0 -11 7
-4 10 28 10 23 0 42 -4 42 -10z m-70 -195 c7 -8 20 -15 29 -15 27 -1 69 -40
42 -40 -14 0 -100 54 -101 63 0 12 17 8 30 -8z m510 -15 c-8 -5 -19 -10 -25
-10 -5 0 -3 5 5 10 8 5 20 10 25 10 6 0 3 -5 -5 -10z m-2203 -32 c-3 -8 -6 -5
-6 6 -1 11 2 17 5 13 3 -3 4 -12 1 -19z m-1182 -78 c50 -6 119 -15 155 -21 36
-6 119 -17 185 -24 66 -8 181 -23 255 -34 194 -28 272 -33 264 -18 -4 7 5 1
20 -13 15 -14 29 -24 32 -22 11 6 24 1 24 -10 0 -16 44 -58 59 -58 6 0 10 -10
8 -22 -1 -14 3 -22 11 -21 7 2 12 -8 12 -23 0 -18 4 -25 14 -21 15 6 26 -12
26 -44 0 -10 5 -19 11 -19 5 0 7 5 4 10 -3 6 -2 10 2 10 5 0 9 -19 9 -42 0
-24 4 -54 8 -68 4 -14 4 -20 -1 -15 -15 20 -91 75 -102 75 -6 0 -11 5 -11 10
0 6 -7 10 -15 10 -9 0 -18 7 -21 15 -4 8 -11 12 -17 8 -6 -4 -8 0 -5 8 7 19
-31 70 -39 52 -8 -22 -21 -14 -34 22 -7 19 -16 30 -19 25 -4 -6 -17 -1 -31 12
-14 13 -38 24 -54 26 -17 1 -40 7 -51 13 -18 9 -30 6 -75 -23 -76 -49 -171
-154 -204 -226 -18 -39 -32 -59 -41 -55 -8 3 -11 15 -8 32 5 22 2 27 -18 29
-37 3 -80 -18 -73 -37 4 -9 13 -43 22 -76 8 -33 19 -68 25 -78 7 -14 5 -22 -9
-32 -16 -12 -18 -30 -16 -197 2 -101 6 -210 9 -243 l6 -60 -22 28 c-23 29 -40
35 -40 14 0 -18 46 -61 58 -53 11 6 25 -124 16 -148 -3 -8 -12 -12 -20 -9 -10
4 -12 0 -8 -11 3 -9 10 -16 15 -16 5 0 9 -4 9 -10 0 -5 -6 -7 -14 -4 -11 4
-13 0 -9 -15 3 -12 1 -21 -6 -21 -6 0 -10 3 -10 8 3 20 -3 32 -17 32 -9 0 -14
8 -13 18 1 9 1 26 0 37 -2 19 -2 19 -15 2 -12 -16 -17 -14 -65 31 -28 26 -51
53 -51 60 0 7 -4 12 -10 12 -20 0 -9 -33 20 -58 17 -15 30 -33 29 -42 0 -9 -4
-6 -9 8 -5 12 -14 22 -19 22 -17 0 -23 -20 -12 -34 6 -8 13 -32 15 -54 3 -22
10 -50 16 -62 10 -19 9 -21 -7 -18 -12 2 -18 13 -19 33 -2 38 -12 85 -25 108
-5 10 -7 22 -4 27 4 6 1 10 -4 10 -6 0 -11 6 -11 14 0 7 -7 19 -15 26 -9 7
-14 18 -12 24 8 22 -58 116 -81 116 -5 0 -12 6 -15 14 -3 8 -16 16 -29 18 -28
4 -41 58 -14 58 9 0 16 5 16 10 0 6 -7 10 -15 10 -8 0 -15 -4 -15 -10 0 -25
-31 -7 -37 21 -4 24 -10 29 -24 26 -24 -6 -24 0 -1 21 10 10 13 14 7 10 -20
-13 -26 4 -8 24 15 17 15 18 -5 18 -12 0 -22 -6 -22 -12 0 -9 -4 -8 -10 2 -6
8 -9 36 -8 63 1 35 -3 52 -16 65 -18 16 -18 16 -13 -5 3 -12 2 -22 -2 -21 -3
0 -17 0 -31 -1 -20 -1 -22 -3 -10 -11 21 -13 10 -19 -23 -13 -41 8 -34 50 13
76 19 10 42 25 50 33 13 13 13 16 -2 25 -10 6 -18 16 -18 23 0 7 -9 25 -20 39
-18 22 -19 31 -10 78 22 121 32 150 45 139 7 -6 20 -7 29 -4 12 5 19 0 23 -15
6 -24 33 -29 33 -6 0 8 -7 15 -15 15 -15 0 -21 25 -7 34 10 6 43 -19 35 -27
-3 -4 1 -7 10 -7 10 0 17 -8 17 -17 0 -12 3 -14 11 -6 16 16 3 45 -35 73 -20
14 -31 30 -28 39 4 10 -1 12 -19 7 -13 -3 -18 -3 -12 0 9 4 8 12 -4 30 -17 27
-19 17 28 192 l23 84 30 -6 c17 -3 72 -10 121 -16z m3149 -10 c15 0 59 -40 52
-47 -8 -8 -96 37 -96 49 0 6 7 7 16 4 9 -3 21 -6 28 -6z m-204 -100 c0 -5 5
-10 11 -10 5 0 7 5 4 10 -3 6 -2 10 3 10 6 0 12 -7 16 -15 3 -8 13 -15 22 -15
11 0 14 5 10 16 -5 14 -4 15 9 4 13 -11 12 -14 -8 -31 l-22 -18 27 -1 c15 0
30 -4 33 -10 4 -6 -9 -10 -30 -10 -28 0 -38 5 -42 20 -3 11 -13 20 -23 20 -26
0 -82 25 -73 33 10 11 63 8 63 -3z m174 -75 l29 -25 -26 0 c-17 0 -27 5 -27
15 0 8 -4 15 -10 15 -5 0 -10 5 -10 10 0 16 13 12 44 -15z m126 0 c11 4 20 2
20 -4 0 -6 -11 -11 -25 -11 -17 0 -25 -6 -26 -17 0 -14 -2 -15 -6 -3 -4 8 -15
21 -25 28 -27 20 -11 35 17 16 14 -9 33 -13 45 -9z m-3460 -120 c0 -8 7 -15
15 -15 18 0 20 -16 3 -26 -7 -4 -8 -3 -4 4 4 7 3 12 -3 12 -5 0 -11 -6 -14
-12 -8 -22 -27 5 -21 30 7 25 24 30 24 7z m3240 -25 c0 -5 -8 -10 -17 -10 -15
0 -16 2 -3 10 19 12 20 12 20 0z m-303 -376 c-3 -3 -12 -4 -19 -1 -8 3 -5 6 6
6 11 1 17 -2 13 -5z m1101 -50 c-2 -1 -20 3 -41 9 -24 8 -37 18 -37 30 0 15 5
14 40 -9 22 -15 39 -28 38 -30z m-20 -23 c3 -8 -1 -12 -9 -9 -7 2 -15 10 -17
17 -3 8 1 12 9 9 7 -2 15 -10 17 -17z m-3988 -125 c0 -2 -7 -9 -15 -16 -12
-10 -15 -10 -15 4 0 9 7 16 15 16 8 0 15 -2 15 -4z m4350 -6 c0 -5 -2 -10 -4
-10 -3 0 -8 5 -11 10 -3 6 -1 10 4 10 6 0 11 -4 11 -10z m-4279 -113 c-10 -9
-11 -8 -5 6 3 10 9 15 12 12 3 -3 0 -11 -7 -18z m5629 -19 c0 -12 -13 -9 -32
6 -10 7 -15 16 -12 19 7 7 44 -14 44 -25z m-463 16 c-3 -3 -12 -4 -19 -1 -8 3
-5 6 6 6 11 1 17 -2 13 -5z m-217 -14 c0 -5 -4 -10 -10 -10 -5 0 -10 5 -10 10
0 6 5 10 10 10 6 0 10 -4 10 -10z m-4906 -15 c15 -11 16 -15 5 -15 -8 0 -24 7
-35 15 -14 11 -15 14 -4 14 8 0 24 -6 34 -14z m4580 6 c3 -5 -15 -11 -40 -13
-44 -3 -61 2 -47 16 10 9 81 7 87 -3z m1106 -22 c0 -18 -18 -9 -23 12 -4 16
-3 18 9 8 8 -6 14 -15 14 -20z m-697 0 c-5 -5 -20 -5 -33 -2 l-25 7 25 6 c28
8 46 2 33 -11z m-58 -19 c17 -7 14 -9 -13 -9 -20 -1 -31 3 -27 9 7 12 13 12
40 0z m122 -16 c-3 -3 -12 -4 -19 -1 -8 3 -5 6 6 6 11 1 17 -2 13 -5z m1183
-38 c0 -3 -4 -8 -10 -11 -5 -3 -10 -1 -10 4 0 6 5 11 10 11 6 0 10 -2 10 -4z
m215 -86 c3 -5 -1 -10 -9 -10 -9 0 -16 5 -16 10 0 6 4 10 9 10 6 0 13 -4 16
-10z m-105 -19 c0 -5 33 -12 74 -16 58 -6 73 -10 69 -21 -6 -17 -66 -19 -93
-2 -15 10 -22 9 -38 -6 -16 -14 -26 -15 -53 -7 -19 5 -26 10 -16 10 10 1 27 6
38 12 16 8 18 13 8 25 -8 10 -8 14 0 14 6 0 11 -4 11 -9z m-6080 -51 c0 -5 -5
-10 -11 -10 -5 0 -7 5 -4 10 3 6 8 10 11 10 2 0 4 -4 4 -10z m-89 -55 c8 -16
6 -15 -10 4 -12 13 -21 28 -21 35 0 12 14 -5 31 -39z m6099 35 c0 -5 -4 -10
-10 -10 -5 0 -10 5 -10 10 0 6 5 10 10 10 6 0 10 -4 10 -10z m120 -15 c0 -8
-7 -15 -15 -15 -16 0 -20 12 -8 23 11 12 23 8 23 -8z m65 -56 c-4 -5 -25 -9
-48 -8 l-42 1 40 12 c41 13 60 11 50 -5z m-265 -3 c0 -3 -4 -8 -10 -11 -5 -3
-10 -1 -10 4 0 6 5 11 10 11 6 0 10 -2 10 -4z m70 0 c0 -11 -19 -15 -25 -6 -3
5 1 10 9 10 9 0 16 -2 16 -4z m50 -12 c0 -3 -7 -12 -15 -20 -16 -17 -18 -14
-9 10 6 15 24 23 24 10z m174 -9 c-4 -8 -14 -15 -23 -15 -14 1 -13 3 3 15 25
19 27 19 20 0z m156 -5 c0 -5 -4 -10 -10 -10 -5 0 -10 5 -10 10 0 6 5 10 10
10 6 0 10 -4 10 -10z m-6410 -64 c-1 -20 -2 -20 -15 4 -19 33 -19 46 0 30 8
-7 15 -22 15 -34z m20 34 c0 -5 -4 -10 -10 -10 -5 0 -10 5 -10 10 0 6 5 10 10
10 6 0 10 -4 10 -10z m4377 4 c-3 -3 -12 -4 -19 -1 -8 3 -5 6 6 6 11 1 17 -2
13 -5z m1779 -19 c-3 -8 1 -21 9 -29 8 -7 11 -16 8 -19 -3 -3 -12 1 -21 9 -8
9 -25 14 -39 11 -12 -2 -23 -1 -23 2 1 15 17 29 40 34 14 2 27 5 29 6 2 0 1
-6 -3 -14z m188 -26 c-8 -14 -44 -10 -44 5 0 9 8 12 25 8 14 -2 22 -8 19 -13z
m-74 -9 c0 -5 -2 -10 -4 -10 -3 0 -8 5 -11 10 -3 6 -1 10 4 10 6 0 11 -4 11
-10z m50 -80 c0 -5 -8 -10 -17 -10 -15 0 -16 2 -3 10 19 12 20 12 20 0z
m-1303 -585 c8 -9 13 -18 11 -21 -8 -8 -36 7 -42 22 -7 19 12 18 31 -1z m2205
-27 c-12 -12 -35 -1 -27 12 3 5 13 6 21 3 10 -4 12 -9 6 -15z m78 -18 c0 -5
-4 -12 -10 -15 -5 -3 -10 -4 -10 -1 0 2 -3 12 -6 20 -5 12 -2 15 10 10 9 -3
16 -10 16 -14z m317 -26 c-3 -3 -12 -4 -19 -1 -8 3 -5 6 6 6 11 1 17 -2 13 -5z
m152 -8 c10 -12 8 -13 -8 -9 -12 3 -21 9 -21 14 0 14 16 11 29 -5z m-2559 -18
c0 -13 -43 -6 -47 8 -2 7 6 10 22 7 14 -3 25 -10 25 -15z m2625 2 c3 -5 1 -10
-4 -10 -6 0 -11 5 -11 10 0 6 2 10 4 10 3 0 8 -4 11 -10z m-5175 -52 c0 -5 -4
-8 -10 -8 -5 0 -10 10 -10 23 0 18 2 19 10 7 5 -8 10 -18 10 -22z m2650 12
c12 -8 11 -10 -7 -10 -13 0 -23 5 -23 10 0 13 11 13 30 0z m467 -6 c-3 -3 -12
-4 -19 -1 -8 3 -5 6 6 6 11 1 17 -2 13 -5z m-332 -14 c-3 -5 -13 -10 -21 -10
-8 0 -12 5 -9 10 3 6 13 10 21 10 8 0 12 -4 9 -10z m235 0 c0 -5 -7 -10 -16
-10 -8 0 -12 5 -9 10 3 6 10 10 16 10 5 0 9 -4 9 -10z m-2876 -41 c4 6 12 9
17 5 5 -3 17 0 25 7 10 8 18 9 22 3 4 -6 15 -13 25 -17 18 -7 24 -27 7 -27 -5
0 -10 -4 -10 -8 0 -5 14 -7 30 -4 23 3 30 10 30 26 0 12 3 16 8 10 11 -17 49
-26 57 -14 10 16 22 12 28 -10 8 -30 -22 -42 -55 -22 -15 9 -30 13 -34 9 -9
-9 16 -38 28 -31 5 3 15 1 22 -6 8 -6 26 -8 41 -4 18 5 30 2 36 -7 13 -20 11
-29 -6 -29 -8 0 -15 -7 -15 -15 0 -21 12 -19 33 5 20 24 40 26 57 6 6 -8 18
-12 27 -9 11 4 12 8 2 13 -9 6 -9 12 4 24 19 20 27 20 27 2 0 -8 8 -17 17 -20
12 -5 13 -10 5 -18 -12 -12 7 -38 30 -38 10 0 9 -3 -2 -10 -9 -5 -19 -5 -27 2
-10 8 -13 6 -13 -7 0 -19 31 -75 41 -75 3 0 4 -11 1 -25 -2 -14 -8 -22 -13
-19 -5 3 -7 9 -4 14 3 5 -4 14 -15 20 -15 8 -19 17 -15 31 4 11 2 19 -4 19 -6
0 -11 -13 -11 -30 0 -28 -29 -57 -44 -43 -3 3 -6 -3 -6 -14 0 -16 -5 -20 -20
-16 -11 3 -20 11 -20 18 0 8 -8 15 -17 17 -13 2 -9 9 17 26 l35 23 -32 -6
c-21 -4 -33 -3 -33 4 0 6 7 11 16 11 8 0 13 4 10 9 -4 5 -16 4 -30 -2 -27 -13
-31 -45 -10 -86 13 -24 12 -26 -7 -29 -12 -2 -24 -12 -26 -23 -3 -10 -12 -19
-20 -19 -8 0 -11 5 -7 11 4 7 -2 9 -17 7 -13 -2 -23 -9 -21 -16 1 -6 -2 -12
-8 -12 -5 0 -10 5 -10 11 0 8 -5 7 -16 -2 -14 -11 -18 -10 -30 6 -13 17 -16
18 -24 5 -5 -8 -10 -18 -10 -22 0 -15 -40 -8 -40 7 0 8 -4 15 -10 15 -5 0 -10
-7 -10 -15 0 -20 -24 -19 -45 1 -23 23 -15 57 15 65 23 6 23 7 3 8 -12 1 -23
7 -26 14 -3 9 -7 9 -19 -1 -12 -9 -18 -10 -23 -2 -4 6 -13 9 -21 6 -10 -4 -14
3 -14 24 0 17 -4 30 -10 30 -5 0 -10 -13 -10 -30 0 -16 -4 -30 -10 -30 -9 0
-14 23 -13 57 1 9 -7 11 -23 7 -22 -6 -24 -3 -24 30 0 57 -20 42 -22 -16 -1
-44 -2 -46 -5 -15 -3 24 -9 37 -19 37 -8 0 -14 5 -14 10 0 6 7 10 15 10 7 0
18 8 24 17 7 14 12 15 24 5 12 -11 15 -7 20 20 2 19 0 36 -7 40 -8 5 -8 10 1
19 8 8 17 5 34 -12 21 -21 22 -22 36 -3 8 10 16 18 18 17 3 -2 5 0 5 5 -1 4
-13 6 -29 4 -16 -2 -33 4 -41 13 -17 20 -5 32 16 15 13 -12 17 -11 26 1 7 11
11 11 15 1 7 -17 23 -5 23 18 0 10 15 27 33 39 l32 21 11 -27 c7 -16 14 -22
18 -14z m-114 16 c0 -8 -5 -15 -11 -15 -5 0 -7 -5 -3 -12 5 -8 2 -9 -10 -5
-10 4 -22 7 -27 7 -5 0 -9 4 -9 9 0 5 9 7 20 4 14 -4 20 0 20 11 0 9 5 16 10
16 6 0 10 -7 10 -15z m320 -7 c0 -6 -6 -5 -15 2 -8 7 -15 14 -15 16 0 2 7 1
15 -2 8 -4 15 -11 15 -16z m66 -35 c-10 -10 -19 5 -10 18 6 11 8 11 12 0 2 -7
1 -15 -2 -18z m-472 1 c9 -24 8 -25 -13 -12 -11 7 -17 16 -15 20 8 13 21 9 28
-8z m539 -12 c-2 -10 3 -24 11 -31 23 -19 20 -31 -8 -31 -18 0 -23 5 -21 18 2
9 4 27 4 40 1 12 5 22 10 22 5 0 7 -8 4 -18z m-553 -31 c0 -5 -7 -11 -15 -15
-9 -3 -20 -16 -25 -28 -9 -20 -10 -19 -4 7 5 28 19 44 37 45 4 0 7 -4 7 -9z
m690 -46 c0 -8 -7 -15 -15 -15 -8 0 -15 7 -15 15 0 8 7 15 15 15 8 0 15 -7 15
-15z m500 -45 c0 -5 -4 -10 -9 -10 -6 0 -13 5 -16 10 -3 6 1 10 9 10 9 0 16
-4 16 -10z m-1263 -16 c-3 -3 -12 -4 -19 -1 -8 3 -5 6 6 6 11 1 17 -2 13 -5z
m-37 -95 c0 -5 -4 -9 -10 -9 -5 0 -10 7 -10 16 0 8 5 12 10 9 6 -3 10 -10 10
-16z m57 5 c3 -9 15 -20 27 -24 18 -7 18 -9 3 -9 -26 -1 -57 17 -57 34 0 20
19 19 27 -1z m80 -36 c-3 -7 -5 -2 -5 12 0 14 2 19 5 13 2 -7 2 -19 0 -25z
m77 -53 c3 -8 1 -15 -5 -15 -6 0 -8 -9 -4 -22 5 -15 4 -20 -3 -13 -5 6 -12 22
-16 38 -5 20 -3 27 8 27 8 0 16 -7 20 -15z m-77 -27 c-3 -7 -5 -2 -5 12 0 14
2 19 5 13 2 -7 2 -19 0 -25z m283 -49 c0 -4 -6 -9 -13 -12 -10 -4 -13 2 -9 20
3 18 7 21 13 11 5 -7 9 -16 9 -19z m780 6 c0 -18 -25 -26 -40 -12 -10 10 -11
4 -5 -28 6 -35 5 -38 -8 -25 -9 8 -17 29 -19 45 -2 25 1 30 19 30 12 0 25 4
29 8 9 9 24 -1 24 -18z m-950 -21 c0 -2 -9 -4 -21 -4 -11 0 -18 4 -14 10 5 8
35 3 35 -6z m105 -5 c11 -16 1 -19 -13 -3 -7 8 -8 14 -3 14 5 0 13 -5 16 -11z
m745 -11 c0 -19 -2 -20 -10 -8 -13 19 -13 30 0 30 6 0 10 -10 10 -22z m-11
-56 c0 -24 -1 -25 -9 -7 -12 28 -12 47 0 40 6 -3 10 -18 9 -33z m-39 18 c0 -5
-4 -10 -10 -10 -5 0 -10 5 -10 10 0 6 5 10 10 10 6 0 10 -4 10 -10z m2986 -67
c-11 -11 -17 4 -9 23 7 18 8 18 11 1 2 -10 1 -21 -2 -24z m-1396 -3 c0 -5 -7
-10 -16 -10 -8 0 -12 5 -9 10 3 6 10 10 16 10 5 0 9 -4 9 -10z m-785 -259 c-3
-6 -11 -11 -17 -11 -6 0 -6 6 2 15 14 17 26 13 15 -4z m1075 -7 c0 -8 -5 -12
-10 -9 -6 4 -8 11 -5 16 9 14 15 11 15 -7z m840 -249 c0 -8 -4 -15 -10 -15 -5
0 -10 7 -10 15 0 8 5 15 10 15 6 0 10 -7 10 -15z m-265 -45 c-3 -5 -13 -10
-21 -10 -8 0 -14 5 -14 10 0 6 9 10 21 10 11 0 17 -4 14 -10z m-820 -86 c9 -9
14 -18 11 -21 -6 -6 -46 20 -46 29 0 13 18 9 35 -8z m1188 -14 c-3 -11 -7 -20
-9 -20 -2 0 -4 9 -4 20 0 11 4 20 9 20 5 0 7 -9 4 -20z m-1597 -90 c16 -14 19
-40 4 -40 -5 0 -10 7 -10 15 0 8 -4 15 -10 15 -13 0 -13 -2 5 -36 17 -34 19
-54 5 -54 -5 0 -10 7 -10 15 0 9 -7 29 -15 45 -9 17 -11 30 -5 30 5 0 11 17
11 38 2 28 3 31 6 10 2 -14 11 -32 19 -38z m1571 8 c-3 -8 -6 -5 -6 6 -1 11 2
17 5 13 3 -3 4 -12 1 -19z m-1622 2 c3 -5 1 -10 -4 -10 -6 0 -11 5 -11 10 0 6
2 10 4 10 3 0 8 -4 11 -10z m389 -98 c17 -20 17 -20 -3 -15 -11 3 -27 16 -36
30 -16 23 -15 24 2 15 10 -6 26 -19 37 -30z m130 23 c11 -8 15 -15 10 -15 -6
0 -19 7 -30 15 -10 8 -14 14 -9 14 6 0 19 -6 29 -14z m-424 -24 c0 -10 7 -35
15 -54 20 -49 19 -58 -4 -22 -24 38 -37 95 -22 95 6 0 11 -8 11 -19z m-115
-11 c3 -5 1 -10 -4 -10 -6 0 -11 5 -11 10 0 6 2 10 4 10 3 0 8 -4 11 -10z
m155 -31 c17 -30 6 -34 -14 -4 -9 14 -12 25 -7 25 6 0 15 -9 21 -21z m-47 -55
c11 -11 9 -44 -3 -44 -5 0 -10 10 -10 22 0 12 -7 29 -16 39 -10 12 -14 25 -9
36 6 15 9 13 19 -14 6 -17 14 -35 19 -39z m-113 50 c0 -3 -7 -12 -15 -20 -16
-17 -18 -14 -9 10 6 15 24 23 24 10z m628 -39 c-3 -3 -9 2 -12 12 -6 14 -5 15
5 6 7 -7 10 -15 7 -18z m-618 5 c0 -5 -5 -10 -11 -10 -5 0 -7 5 -4 10 3 6 8
10 11 10 2 0 4 -4 4 -10z m37 -20 c0 -16 -4 -30 -9 -30 -4 0 -8 14 -8 30 0 17
4 30 8 30 5 0 9 -13 9 -30z m-4353 -156 c56 -55 142 -145 191 -200 50 -54 142
-153 206 -219 142 -146 198 -211 210 -242 5 -12 15 -23 24 -23 8 0 14 -3 14
-7 -3 -20 2 -33 14 -33 7 0 25 -14 40 -31 35 -40 46 -58 24 -40 -11 9 -17 10
-17 2 0 -10 12 -15 36 -12 5 0 23 -19 38 -43 30 -48 50 -59 111 -60 31 -1 40
-5 39 -18 -2 -17 32 -35 43 -24 4 3 11 2 17 -3 6 -5 47 -21 91 -36 44 -15 85
-31 90 -36 10 -8 51 -16 245 -54 47 -9 126 -30 175 -46 101 -34 369 -144 401
-164 25 -16 249 -84 378 -115 49 -12 112 -30 140 -41 28 -10 58 -19 66 -19 8
0 35 -10 60 -22 25 -12 49 -20 54 -19 10 2 15 0 98 -38 26 -12 72 -27 102 -33
31 -7 56 -15 56 -19 0 -3 13 -6 29 -7 17 0 39 -5 50 -11 11 -6 29 -11 40 -11
12 0 21 -4 21 -9 0 -5 24 -12 52 -15 29 -4 58 -11 64 -17 6 -5 40 -11 75 -13
35 -2 73 -7 84 -10 31 -9 98 -15 254 -22 168 -8 396 7 596 38 77 12 169 22
205 21 68 -1 238 -39 328 -72 28 -11 52 -17 52 -13 0 3 -10 17 -22 30 l-23 25
28 -18 c15 -10 32 -26 38 -36 5 -11 15 -19 22 -19 7 0 48 -11 91 -25 94 -30
86 -29 86 -8 0 13 3 14 12 5 15 -15 48 -16 48 -1 0 7 14 8 43 4 l42 -7 -19 21
c-11 11 -14 21 -8 21 6 0 17 -8 24 -18 7 -11 27 -26 43 -36 l30 -17 -55 6
c-30 2 -49 2 -42 -1 33 -15 2 -30 -148 -73 -231 -66 -495 -116 -780 -148 -190
-21 -714 -24 -890 -5 -406 43 -717 109 -1065 226 -982 331 -1816 969 -2400
1836 -109 163 -108 157 -24 113 54 -28 99 -64 173 -139z m4739 149 c-7 -2 -19
-2 -25 0 -7 3 -2 5 12 5 14 0 19 -2 13 -5z m-433 -19 c0 -8 -4 -12 -10 -9 -5
3 -10 10 -10 16 0 5 5 9 10 9 6 0 10 -7 10 -16z m235 -14 c-3 -5 -10 -10 -16
-10 -5 0 -9 5 -9 10 0 6 7 10 16 10 8 0 12 -4 9 -10z m-318 -22 c-3 -8 -6 -5
-6 6 -1 11 2 17 5 13 3 -3 4 -12 1 -19z m210 -65 c-3 -10 -5 -4 -5 12 0 17 2
24 5 18 2 -7 2 -21 0 -30z m240 -223 c20 0 24 -4 18 -17 -16 -42 -12 -59 13
-61 32 -3 32 -3 37 -40 3 -21 -1 -32 -12 -36 -13 -5 -14 -9 -5 -18 17 -17 15
-25 -10 -31 -22 -6 -22 -6 5 -27 31 -25 34 -36 10 -44 -10 -3 -3 -4 15 -2 37
3 41 -4 11 -22 -15 -10 -24 -10 -34 -2 -20 16 -26 -20 -7 -42 10 -12 11 -18 4
-18 -7 0 -13 -10 -13 -22 -1 -17 -2 -19 -6 -5 -4 16 -33 25 -33 9 0 -4 11 -24
25 -45 22 -32 24 -38 10 -43 -8 -4 -22 -1 -30 6 -10 9 -15 9 -15 1 0 -6 4 -11
9 -11 11 0 26 -39 23 -57 -2 -6 2 -14 8 -18 6 -3 7 0 4 9 -3 9 -3 16 1 16 10
0 30 -23 37 -41 5 -14 1 -14 -44 -3 -28 8 -56 18 -62 23 -7 6 -17 6 -26 1 -13
-8 -12 -10 3 -10 9 0 17 -7 17 -15 0 -8 6 -15 13 -15 9 0 9 -3 -1 -9 -15 -9
-13 -46 3 -46 18 0 35 -16 35 -31 0 -9 -5 -12 -11 -8 -7 4 -9 0 -5 -14 8 -26
-7 -36 -52 -34 -27 1 -33 -1 -24 -10 14 -14 16 -38 3 -38 -5 0 -13 9 -16 21
-4 11 -9 19 -11 16 -2 -2 3 -21 12 -42 19 -45 3 -75 -17 -32 -7 15 -16 27 -21
27 -14 0 -9 -37 7 -50 22 -18 18 -39 -8 -51 -18 -8 -23 -17 -19 -35 2 -13 9
-24 14 -24 5 0 6 10 3 21 -5 15 -4 19 4 15 6 -4 11 -13 11 -21 0 -8 9 -30 21
-49 18 -31 19 -36 5 -36 -9 0 -16 5 -16 11 0 5 -13 15 -30 20 -16 6 -27 15
-24 20 3 5 0 9 -6 9 -7 0 -9 -8 -5 -22 6 -17 4 -20 -9 -15 -9 4 -16 2 -16 -2
0 -12 29 -23 41 -15 14 9 10 -16 -5 -32 -13 -12 -15 -11 -21 6 -8 24 -30 26
-39 4 -4 -10 1 -22 11 -29 10 -8 15 -17 11 -21 -5 -4 -17 1 -28 11 -17 15 -20
16 -20 3 0 -9 6 -21 14 -27 10 -8 12 -20 7 -39 -4 -15 -6 -33 -4 -40 3 -7 -1
-10 -11 -6 -11 4 -16 1 -16 -10 0 -9 -5 -16 -11 -16 -6 0 -8 9 -4 20 4 14 2
20 -9 20 -9 0 -18 -11 -22 -25 -8 -34 -23 -32 -35 5 -12 33 -28 41 -25 13 1
-12 -5 -17 -16 -15 -13 2 -18 -4 -18 -23 l0 -25 -22 22 c-14 14 -18 23 -10 26
7 2 12 13 12 25 0 18 -2 19 -10 7 -9 -13 -11 -13 -20 0 -6 10 -10 11 -10 3 0
-7 -6 -13 -14 -13 -10 0 -12 -12 -10 -45 2 -24 -1 -47 -6 -50 -6 -4 -11 8 -11
27 l-1 33 -8 -38 c-9 -46 -20 -60 -20 -24 0 15 -3 26 -8 24 -4 -1 -8 1 -10 5
-6 17 -50 58 -62 58 -7 0 -10 7 -7 14 4 10 1 13 -8 10 -7 -3 -13 -17 -12 -32
2 -24 -1 -26 -36 -27 -21 0 -43 6 -49 13 -6 6 -7 12 -4 12 4 0 2 9 -4 21 -8
14 -8 24 -1 33 7 8 5 12 -9 13 -10 1 -21 -7 -25 -20 -8 -26 -8 -27 0 -49 12
-31 -12 -19 -25 12 -13 32 -24 37 -36 18 -5 -7 -10 -4 -15 10 -9 24 -39 30
-39 8 0 -7 -7 -27 -15 -42 -13 -26 -15 -27 -15 -7 0 12 5 25 10 28 17 10 11
23 -12 27 -14 2 -22 11 -23 25 -1 13 -5 26 -10 30 -4 5 -4 -3 0 -16 6 -19 4
-23 -7 -18 -11 4 -15 -2 -16 -21 -3 -80 -7 -102 -16 -99 -12 4 -15 97 -3 97 4
0 7 5 7 10 0 6 -6 10 -12 10 -20 0 -65 52 -50 57 19 7 14 25 -6 19 -12 -4 -28
4 -48 23 -37 36 -74 49 -74 26 0 -11 -5 -15 -15 -11 -8 3 -19 -3 -25 -12 -8
-14 -11 -15 -19 -3 -5 7 -14 10 -20 7 -6 -4 -11 0 -11 8 0 9 7 16 16 16 10 0
14 6 11 15 -4 8 -2 17 3 20 6 4 10 15 10 26 0 17 -3 18 -20 7 -11 -7 -18 -18
-16 -25 8 -19 -10 -25 -24 -9 -15 19 3 56 28 57 13 0 12 2 -5 9 -21 9 -21 9
13 45 32 35 54 39 54 10 0 -21 37 -6 44 18 3 12 1 26 -4 31 -13 13 -13 39 0
31 6 -3 10 -1 10 4 0 13 -3 13 -24 5 -13 -5 -15 -15 -11 -43 l6 -36 -19 23
c-17 23 -20 23 -36 7 -9 -9 -23 -14 -31 -11 -17 6 -20 32 -5 41 6 4 8 10 5 15
-3 4 1 13 9 19 10 9 15 8 20 -4 10 -26 27 -6 19 23 -5 22 -4 25 8 17 8 -6 21
-10 29 -9 8 1 23 2 32 3 14 1 16 7 12 30 -6 27 -4 29 17 24 17 -5 21 -3 17 8
-4 11 5 13 44 10 37 -2 48 -6 44 -17 -3 -8 1 -14 9 -14 19 0 19 15 0 34 -20
19 -19 32 0 16 13 -11 20 -11 39 0 13 7 29 9 35 6 7 -5 9 -1 5 8 -3 9 -1 16 5
16 6 0 11 -7 11 -15 0 -16 12 -20 24 -8 4 4 19 8 34 9 15 1 69 4 121 7 51 4
96 9 99 11 3 3 12 0 20 -7 13 -10 15 -9 9 12 l-6 23 20 -21 c22 -23 35 -26 44
-11 5 8 12 7 22 -2 14 -11 15 -10 9 10 -5 14 -3 22 4 22 8 0 9 11 4 32 -6 29
-5 31 9 19 9 -7 21 -10 27 -6 5 3 13 -1 16 -9 3 -9 11 -16 16 -16 6 0 1 16
-11 36 -12 19 -21 38 -21 41 0 9 58 -57 63 -71 2 -6 8 -8 12 -3 5 4 3 13 -3
19 -7 7 -12 19 -12 27 0 8 -6 22 -14 30 -13 14 -12 18 10 28 19 9 24 9 23 0
-3 -24 1 -37 12 -37 13 0 2 39 -18 62 -8 9 -12 22 -8 27 3 6 -1 11 -10 11 -8
0 -21 12 -27 28 -16 37 -15 37 -35 21 -15 -12 -16 -12 -11 2 5 14 -31 59 -40
50 -6 -6 -26 7 -20 14 4 4 27 -4 52 -19 49 -29 61 -32 50 -14 -5 7 -3 8 6 3 8
-5 11 -3 8 6 -3 8 -14 14 -25 14 -12 0 -30 9 -42 19 -22 20 -27 36 -11 36 6 0
10 -7 10 -15 0 -8 9 -15 20 -15 11 0 20 5 20 10 0 6 -5 9 -12 8 -6 -2 -14 6
-16 17 -3 15 -1 17 8 9 9 -9 18 -5 36 13 19 19 31 23 52 19 18 -4 22 -3 13 2
-10 7 -2 15 32 32 29 15 43 28 40 36 -3 8 0 14 6 14 6 0 11 -4 11 -10 0 -5 10
-10 23 -10 16 0 18 3 9 9 -20 13 55 54 100 55 20 0 36 5 35 10 -1 5 7 12 17
14 14 3 17 0 13 -11 -4 -10 0 -13 13 -10 17 5 27 -2 55 -42 14 -20 14 -20 15
3 0 12 -7 25 -15 28 -8 4 -15 16 -14 28 0 11 3 15 6 9 2 -7 16 -13 30 -13z
m73 0 c0 -5 -4 -10 -10 -10 -5 0 -10 5 -10 10 0 6 5 10 10 10 6 0 10 -4 10
-10z m-626 -256 c9 -22 -3 -32 -14 -14 -12 19 -12 30 -1 30 5 0 12 -7 15 -16z
m799 -5 c4 -16 3 -18 -9 -8 -16 13 -19 29 -5 29 5 0 11 -9 14 -21z m-800 -58
c-6 -8 -31 23 -38 49 -6 21 -3 19 17 -10 14 -19 23 -37 21 -39z m49 13 c11
-14 22 -23 25 -20 3 2 13 -3 24 -12 20 -18 26 -42 9 -42 -5 0 -10 4 -10 9 0 5
-8 12 -18 15 -10 3 -26 20 -36 36 -9 17 -22 27 -28 24 -7 -4 -8 -2 -4 4 10 17
16 15 38 -14z m-112 -1 c20 -18 26 -33 13 -33 -9 1 -47 50 -39 50 3 0 15 -8
26 -17z m70 -33 c0 -5 -7 -7 -15 -4 -8 4 -15 8 -15 10 0 2 7 4 15 4 8 0 15 -4
15 -10z m635 -42 c-19 -11 -30 -5 -21 11 4 6 14 7 22 4 15 -5 14 -7 -1 -15z
m135 12 c0 -5 -2 -10 -4 -10 -3 0 -8 5 -11 10 -3 6 -1 10 4 10 6 0 11 -4 11
-10z m-80 -130 c8 -5 11 -10 5 -10 -5 0 -17 5 -25 10 -8 5 -10 10 -5 10 6 0
17 -5 25 -10z m60 0 c0 -5 -6 -10 -14 -10 -8 0 -18 5 -21 10 -3 6 3 10 14 10
12 0 21 -4 21 -10z m-108 -20 c4 12 38 3 38 -10 0 -14 -63 -5 -68 10 -4 13 -3
13 10 2 11 -9 17 -9 20 -2z m-35 -94 c-2 -5 -13 -11 -25 -13 -16 -2 -22 2 -22
15 0 10 3 21 6 25 8 8 45 -16 41 -27z m-2 -76 c3 -5 1 -10 -4 -10 -6 0 -11 5
-11 10 0 6 2 10 4 10 3 0 8 -4 11 -10z m65 -10 c0 -5 -2 -10 -4 -10 -3 0 -8 5
-11 10 -3 6 -1 10 4 10 6 0 11 -4 11 -10z m15 -40 c3 -5 2 -10 -4 -10 -5 0
-13 5 -16 10 -3 6 -2 10 4 10 5 0 13 -4 16 -10z m-162 -7 c-7 -2 -13 -12 -13
-21 0 -14 -2 -15 -9 -2 -12 18 -5 30 17 29 11 0 12 -3 5 -6z m-1323 -29 c0 -8
-5 -12 -10 -9 -6 4 -8 11 -5 16 9 14 15 11 15 -7z m1400 -15 c0 -6 -4 -7 -10
-4 -5 3 -10 11 -10 16 0 6 5 7 10 4 6 -3 10 -11 10 -16z m-1379 -42 c-13 -13
-26 -3 -16 12 3 6 11 8 17 5 6 -4 6 -10 -1 -17z m1368 0 c6 -8 8 -16 5 -19 -3
-3 8 -16 23 -28 25 -20 25 -22 6 -16 -19 6 -23 4 -23 -14 0 -12 -5 -18 -10
-15 -6 4 -9 20 -8 37 1 18 -3 33 -10 36 -14 4 -17 32 -3 32 5 0 14 -6 20 -13z
m-1354 -37 c-10 -11 -22 -20 -27 -20 -5 0 -4 9 2 20 6 11 18 20 27 20 14 0 14
-2 -2 -20z m10 -78 c-3 -3 0 -11 6 -19 7 -8 8 -13 1 -13 -5 0 -15 7 -22 15 -7
8 -16 13 -20 10 -4 -2 -5 7 -2 21 4 24 5 24 23 8 11 -10 17 -19 14 -22z m-60
-2 c3 -5 -1 -10 -10 -10 -9 0 -13 5 -10 10 3 6 8 10 10 10 2 0 7 -4 10 -10z
m0 -40 c3 -5 1 -10 -4 -10 -6 0 -11 5 -11 10 0 6 2 10 4 10 3 0 8 -4 11 -10z
m55 -15 c7 -8 19 -15 26 -15 8 0 14 -4 14 -10 0 -5 -4 -10 -9 -10 -5 0 -12 -8
-14 -17 -4 -14 -5 -12 -6 5 -1 14 -10 26 -27 32 -14 6 -22 14 -19 20 9 14 21
12 35 -5z m148 -12 c-2 -9 -8 -18 -15 -20 -7 -3 -9 3 -6 16 6 25 26 28 21 4z
m55 -17 c14 -20 13 -24 -2 -33 -10 -7 -25 -7 -41 -1 -22 8 -23 11 -10 21 9 7
14 20 12 29 -5 24 22 13 41 -16z m-103 -20 c0 -3 -4 -8 -10 -11 -5 -3 -10 -1
-10 4 0 6 5 11 10 11 6 0 10 -2 10 -4z m127 -71 c0 -28 -5 -45 -12 -45 -6 0
-11 10 -11 23 1 13 -4 21 -12 19 -9 -1 -8 5 4 23 23 36 31 31 31 -20z m53 -65
c-6 -11 -16 -17 -22 -14 -7 5 -5 11 6 19 9 7 16 17 15 21 -3 18 4 28 8 12 2
-9 -1 -26 -7 -38z m210 -49 l0 -26 -15 29 c-19 36 -19 52 0 36 8 -7 15 -24 15
-39z m-306 -8 c-10 -40 -14 -41 -14 -5 0 18 5 32 10 32 6 0 8 -11 4 -27z m516
-9 c0 -32 -6 -30 -18 5 -9 25 -8 29 4 24 8 -3 14 -16 14 -29z m258 5 c2 -28 0
-30 -13 -19 -18 15 -20 50 -2 50 7 0 14 -14 15 -31z m-338 -15 c0 -8 -4 -14
-10 -14 -5 0 -10 9 -10 21 0 11 5 17 10 14 6 -3 10 -13 10 -21z m-303 -16 c-3
-7 -5 -2 -5 12 0 14 2 19 5 13 2 -7 2 -19 0 -25z m433 7 c0 -14 5 -25 12 -25
6 0 8 -3 5 -6 -4 -4 -13 -1 -22 6 -17 14 -21 50 -5 50 6 0 10 -11 10 -25z m50
-15 c0 -5 -5 -10 -11 -10 -5 0 -7 5 -4 10 3 6 8 10 11 10 2 0 4 -4 4 -10z
m-160 -14 c0 -3 -4 -8 -10 -11 -5 -3 -10 -1 -10 4 0 6 5 11 10 11 6 0 10 -2
10 -4z m677 -132 c-3 -3 -12 -4 -19 -1 -8 3 -5 6 6 6 11 1 17 -2 13 -5z"/>
<path d="M2582 8788 c-7 -7 -12 -16 -12 -21 0 -5 7 -1 16 8 9 9 14 18 12 20
-2 3 -10 -1 -16 -7z"/>
<path d="M2525 8650 c-3 -5 -1 -10 4 -10 6 0 11 5 11 10 0 6 -2 10 -4 10 -3 0
-8 -4 -11 -10z"/>
<path d="M2485 8580 c-3 -5 -1 -10 4 -10 6 0 11 5 11 10 0 6 -2 10 -4 10 -3 0
-8 -4 -11 -10z"/>
<path d="M2531 8561 c-1 -24 2 -32 9 -25 7 7 7 19 1 35 -9 23 -10 22 -10 -10z"/>
<path d="M2490 8530 c0 -5 5 -10 11 -10 5 0 7 5 4 10 -3 6 -8 10 -11 10 -2 0
-4 -4 -4 -10z"/>
<path d="M2640 8489 c0 -5 5 -7 10 -4 6 3 10 8 10 11 0 2 -4 4 -10 4 -5 0 -10
-5 -10 -11z"/>
<path d="M2745 8440 c3 -5 11 -10 16 -10 6 0 7 5 4 10 -3 6 -11 10 -16 10 -6
0 -7 -4 -4 -10z"/>
<path d="M2593 8433 c-22 -8 -14 -23 12 -23 16 0 25 6 25 15 0 15 -14 18 -37
8z"/>
<path d="M2750 8400 c0 -5 5 -10 10 -10 6 0 10 5 10 10 0 6 -4 10 -10 10 -5 0
-10 -4 -10 -10z"/>
<path d="M3036 8353 c-4 -5 -11 -8 -14 -8 -4 0 -18 -8 -32 -18 -20 -14 -23
-21 -14 -35 16 -25 50 -26 74 -2 12 12 19 24 16 28 -4 3 -12 -1 -19 -10 -12
-15 -57 -31 -57 -20 0 3 14 18 32 34 17 15 29 30 26 33 -2 3 -8 2 -12 -2z"/>
<path d="M3070 8350 c0 -5 5 -10 11 -10 5 0 7 5 4 10 -3 6 -8 10 -11 10 -2 0
-4 -4 -4 -10z"/>
<path d="M2891 8334 c0 -11 3 -14 6 -6 3 7 2 16 -1 19 -3 4 -6 -2 -5 -13z"/>
<path d="M2970 8249 c0 -5 5 -7 10 -4 6 3 10 8 10 11 0 2 -4 4 -10 4 -5 0 -10
-5 -10 -11z"/>
<path d="M3310 7870 c0 -5 7 -10 16 -10 8 0 12 5 9 10 -3 6 -10 10 -16 10 -5
0 -9 -4 -9 -10z"/>
<path d="M3385 7720 c-3 -5 1 -10 9 -10 9 0 16 5 16 10 0 6 -4 10 -9 10 -6 0
-13 -4 -16 -10z"/>
<path d="M3430 7705 c0 -9 6 -12 18 -8 15 6 15 4 -3 -16 -18 -21 -20 -21 -32
-5 -18 24 -38 4 -29 -30 4 -17 14 -26 34 -29 26 -4 26 -4 -4 -6 -24 -1 -33 4
-37 19 -4 17 -8 18 -36 7 -20 -7 -27 -15 -21 -21 19 -19 10 -26 -32 -27 -32 0
-38 -2 -23 -8 11 -5 56 -6 99 -3 72 5 79 4 73 -12 -12 -29 14 -42 77 -39 67 3
104 23 42 23 -29 0 -37 3 -33 15 4 8 2 17 -3 20 -6 4 -10 1 -10 -6 0 -7 -3 -9
-7 -6 -3 4 2 16 12 28 16 17 17 22 5 29 -12 7 -12 11 1 26 13 16 12 17 -13 11
-21 -6 -26 -4 -22 7 6 16 -21 46 -42 46 -8 0 -14 -7 -14 -15z m-63 -91 c-3 -3
-12 -4 -19 -1 -8 3 -5 6 6 6 11 1 17 -2 13 -5z"/>
<path d="M3205 7680 c3 -5 12 -7 20 -3 21 7 19 13 -6 13 -11 0 -18 -4 -14 -10z"/>
<path d="M3550 7590 c0 -5 4 -10 9 -10 6 0 13 5 16 10 3 6 -1 10 -9 10 -9 0
-16 -4 -16 -10z"/>
<path d="M3520 7506 c0 -2 14 -6 30 -8 17 -3 30 -1 30 4 0 4 -13 8 -30 8 -16
0 -30 -2 -30 -4z"/>
<path d="M3203 7493 c-32 -4 -47 -23 -19 -23 8 0 21 -3 29 -6 9 -3 16 3 20 15
3 12 4 20 4 19 -1 0 -17 -3 -34 -5z"/>
<path d="M3430 7487 c-22 -9 -23 -11 -6 -14 10 -3 23 0 29 6 16 16 5 20 -23 8z"/>
<path d="M3500 7492 c0 -7 -7 -12 -15 -12 -8 0 -15 -4 -15 -10 0 -5 21 -9 48
-9 26 1 38 3 27 6 -11 3 -26 12 -32 21 -8 9 -13 11 -13 4z"/>
<path d="M3376 7465 c-3 -8 -1 -15 4 -15 6 0 10 7 10 15 0 8 -2 15 -4 15 -2 0
-6 -7 -10 -15z"/>
<path d="M3708 7453 c6 -2 18 -2 25 0 6 3 1 5 -13 5 -14 0 -19 -2 -12 -5z"/>
<path d="M3275 7430 c3 -5 8 -10 11 -10 2 0 4 5 4 10 0 6 -5 10 -11 10 -5 0
-7 -4 -4 -10z"/>
<path d="M3217 7419 c8 -8 16 -8 30 0 16 9 14 10 -11 11 -22 0 -27 -3 -19 -11z"/>
<path d="M3321 7416 c-9 -10 -9 -16 -1 -21 17 -10 37 12 24 25 -8 8 -15 6 -23
-4z"/>
<path d="M3955 7171 c-3 -5 -1 -12 5 -16 12 -7 30 2 30 16 0 12 -27 12 -35 0z"/>
<path d="M3880 7133 c8 -3 17 -9 20 -13 8 -11 80 -20 80 -9 0 5 -11 9 -24 9
-14 0 -28 5 -31 10 -3 6 -18 10 -33 9 -16 0 -21 -3 -12 -6z"/>
<path d="M4310 6850 c0 -5 5 -10 10 -10 6 0 10 5 10 10 0 6 -4 10 -10 10 -5 0
-10 -4 -10 -10z"/>
<path d="M4355 6800 c3 -5 13 -10 21 -10 8 0 12 5 9 10 -3 6 -13 10 -21 10 -8
0 -12 -4 -9 -10z"/>
<path d="M3745 6790 c3 -5 8 -10 11 -10 2 0 4 5 4 10 0 6 -5 10 -11 10 -5 0
-7 -4 -4 -10z"/>
<path d="M4520 6687 c14 -8 61 -22 105 -31 44 -10 91 -22 105 -27 18 -8 22 -7
14 0 -5 6 -37 18 -70 26 -32 8 -68 19 -79 24 -11 5 -38 12 -60 15 -38 6 -39 6
-15 -7z"/>
<path d="M4767 6628 c5 -10 50 -9 83 2 18 6 9 8 -32 6 -31 0 -54 -4 -51 -8z"/>
<path d="M5007 6604 c-3 -4 -39 -6 -79 -6 -104 0 -55 -14 66 -20 54 -2 90 -1
80 3 -11 4 -29 8 -42 8 -13 1 -20 5 -17 11 7 11 2 13 -8 4z"/>
<path d="M5108 6563 c6 -2 18 -2 25 0 6 3 1 5 -13 5 -14 0 -19 -2 -12 -5z"/>
<path d="M4160 6546 c0 -2 7 -9 15 -16 12 -10 15 -10 15 4 0 9 -7 16 -15 16
-8 0 -15 -2 -15 -4z"/>
<path d="M5048 6518 c5 -5 16 -8 23 -6 8 3 3 7 -10 11 -17 4 -21 3 -13 -5z"/>
<path d="M5398 6513 c7 -3 16 -2 19 1 4 3 -2 6 -13 5 -11 0 -14 -3 -6 -6z"/>
<path d="M5185 6490 c-15 -6 -10 -8 18 -8 20 0 37 1 37 3 0 8 -38 11 -55 5z"/>
<path d="M3841 6486 c2 -2 13 -8 25 -14 16 -9 21 -8 21 4 0 8 -10 14 -25 14
-14 0 -23 -2 -21 -4z"/>
<path d="M4210 6480 c0 -5 5 -10 11 -10 5 0 7 5 4 10 -3 6 -8 10 -11 10 -2 0
-4 -4 -4 -10z"/>
<path d="M5268 6473 c7 -3 16 -2 19 1 4 3 -2 6 -13 5 -11 0 -14 -3 -6 -6z"/>
<path d="M5320 6466 c0 -2 13 -6 29 -8 17 -2 28 -1 25 4 -5 8 -54 12 -54 4z"/>
<path d="M5486 6441 c5 -5 29 -11 54 -15 27 -3 39 -3 30 3 -20 11 -96 22 -84
12z"/>
<path d="M4478 6423 c7 -3 16 -2 19 1 4 3 -2 6 -13 5 -11 0 -14 -3 -6 -6z"/>
<path d="M5695 6410 c11 -4 47 -10 80 -13 33 -3 51 -2 40 2 -11 4 -47 11 -80
14 -33 3 -51 2 -40 -3z"/>
<path d="M4326 6351 c5 -5 25 -12 44 -15 l35 -6 -35 14 c-42 17 -58 20 -44 7z"/>
<path d="M4418 6323 c7 -3 16 -2 19 1 4 3 -2 6 -13 5 -11 0 -14 -3 -6 -6z"/>
<path d="M4460 6310 c17 -11 47 -14 36 -3 -3 4 -17 8 -29 10 -17 2 -19 1 -7
-7z"/>
<path d="M4538 6293 c6 -2 18 -2 25 0 6 3 1 5 -13 5 -14 0 -19 -2 -12 -5z"/>
<path d="M4918 6143 c7 -3 16 -2 19 1 4 3 -2 6 -13 5 -11 0 -14 -3 -6 -6z"/>
<path d="M4120 6127 c14 -8 27 -12 30 -10 7 6 -23 23 -40 23 -8 0 -4 -6 10
-13z"/>
<path d="M4990 6080 c34 -11 60 -11 35 0 -11 5 -29 8 -40 8 -16 0 -15 -2 5 -8z"/>
<path d="M5535 6070 c27 -12 43 -12 25 0 -8 5 -22 9 -30 9 -10 0 -8 -3 5 -9z"/>
<path d="M4237 6009 c7 -7 15 -10 18 -7 3 3 -2 9 -12 12 -14 6 -15 5 -6 -5z"/>
<path d="M5540 6008 c0 -4 16 -8 35 -8 19 0 35 2 35 4 0 2 -16 6 -35 8 -19 2
-35 0 -35 -4z"/>
<path d="M3935 6000 c3 -5 11 -10 16 -10 6 0 7 5 4 10 -3 6 -11 10 -16 10 -6
0 -7 -4 -4 -10z"/>
<path d="M4300 5970 c0 -5 5 -10 11 -10 5 0 7 5 4 10 -3 6 -8 10 -11 10 -2 0
-4 -4 -4 -10z"/>
<path d="M7728 5948 c0 -18 0 -41 0 -51 1 -10 -3 -15 -8 -12 -6 3 -10 0 -10
-9 0 -8 -4 -16 -9 -18 -4 -1 -10 -22 -13 -45 l-6 -42 22 22 c33 33 72 142 55
153 -5 3 -9 -7 -9 -22 0 -15 -3 -24 -7 -20 -4 4 -6 23 -4 42 1 18 0 34 -3 34
-3 0 -7 -15 -8 -32z"/>
<path d="M4345 5790 c3 -5 11 -10 16 -10 6 0 7 5 4 10 -3 6 -11 10 -16 10 -6
0 -7 -4 -4 -10z"/>
<path d="M7713 5773 c-7 -2 -13 -14 -13 -24 0 -25 16 -17 23 11 3 11 4 20 4
19 -1 0 -8 -3 -14 -6z"/>
<path d="M4570 5710 c0 -5 5 -10 11 -10 5 0 7 5 4 10 -3 6 -8 10 -11 10 -2 0
-4 -4 -4 -10z"/>
<path d="M4737 5649 c7 -7 15 -10 18 -7 3 3 -2 9 -12 12 -14 6 -15 5 -6 -5z"/>
<path d="M5786 5462 c-3 -5 1 -15 9 -22 16 -14 20 -3 6 19 -5 8 -11 9 -15 3z"/>
<path d="M6097 5459 c8 -8 16 -8 30 0 16 9 14 10 -11 11 -22 0 -27 -3 -19 -11z"/>
<path d="M6220 5460 c0 -12 28 -21 35 -11 2 5 -4 11 -15 14 -11 3 -20 2 -20
-3z"/>
<path d="M5657 5444 c-8 -8 1 -24 14 -24 5 0 9 7 9 15 0 15 -12 20 -23 9z"/>
<path d="M6030 5426 c0 -9 5 -16 10 -16 6 0 10 4 10 9 0 6 -4 13 -10 16 -5 3
-10 -1 -10 -9z"/>
<path d="M6358 5433 c6 -2 12 -13 12 -24 0 -14 7 -19 29 -19 31 0 50 16 35 30
-5 4 -27 10 -49 13 -22 3 -34 3 -27 0z"/>
<path d="M6520 5415 c12 -15 30 -12 30 6 0 5 -10 9 -21 9 -18 0 -19 -2 -9 -15z"/>
<path d="M8070 5390 c-35 -19 -178 -150 -163 -150 4 0 -10 -10 -32 -21 -22
-12 -44 -28 -49 -36 -10 -18 -30 -39 -75 -76 -30 -25 -33 -33 -40 -101 -4 -41
-4 -83 0 -93 7 -16 8 -15 8 5 1 12 5 22 10 22 6 0 24 20 42 45 18 25 36 45 40
45 5 0 19 11 33 25 32 32 85 35 93 5 3 -11 8 -20 12 -20 4 0 13 -16 20 -35 7
-19 16 -35 21 -35 4 0 6 -9 3 -19 -4 -16 -1 -19 15 -14 20 5 48 -27 35 -41 -3
-3 1 -6 9 -6 8 0 32 -11 52 -25 41 -28 73 -32 100 -12 15 11 16 17 7 34 -6 12
-9 47 -7 80 3 32 0 63 -5 69 -6 8 -5 21 3 39 10 22 9 28 -2 35 -10 6 -15 32
-17 82 -4 114 -13 191 -25 205 -15 18 -47 15 -88 -7z"/>
<path d="M6935 5330 c3 -5 11 -10 16 -10 6 0 7 5 4 10 -3 6 -11 10 -16 10 -6
0 -7 -4 -4 -10z"/>
<path d="M6992 5321 c-11 -7 -10 -10 3 -15 9 -3 26 -6 38 -6 20 0 20 0 1 15
-22 17 -25 17 -42 6z"/>
<path d="M8714 5298 c4 -18 9 -55 12 -83 3 -27 10 -58 15 -68 6 -9 7 -22 4
-27 -3 -6 3 -10 14 -10 12 0 21 5 21 10 0 6 7 10 15 10 8 0 15 5 15 11 0 7 9
9 24 5 17 -4 31 1 50 20 30 31 33 64 8 87 -21 19 -115 62 -156 71 -28 7 -28 6
-22 -26z"/>
<path d="M7191 5255 c0 -5 6 -21 14 -35 8 -14 14 -20 14 -15 0 6 -6 21 -14 35
-8 14 -14 21 -14 15z"/>
<path d="M7236 5170 c7 -38 11 -46 19 -38 3 3 -2 20 -10 39 l-16 34 7 -35z"/>
<path d="M7140 5180 c0 -5 7 -10 15 -10 8 0 15 5 15 10 0 6 -7 10 -15 10 -8 0
-15 -4 -15 -10z"/>
<path d="M8659 5147 c-9 -12 -25 -21 -37 -20 -14 1 -21 -6 -26 -25 -7 -33 -54
-71 -66 -52 -12 19 -49 2 -57 -27 -3 -15 -12 -38 -19 -52 -8 -14 -14 -30 -14
-34 0 -5 -9 -21 -19 -36 -27 -38 -69 -275 -51 -286 5 -3 26 17 46 45 20 27 40
50 44 50 12 0 75 91 75 107 0 7 3 12 7 10 10 -3 49 51 47 65 -2 7 1 24 5 37 6
18 10 21 17 10 8 -11 12 -10 24 5 8 11 13 28 9 38 -3 10 7 35 24 61 37 53 40
65 22 98 l-15 27 -16 -21z"/>
<path d="M5243 4913 c9 -2 23 -2 30 0 6 3 -1 5 -18 5 -16 0 -22 -2 -12 -5z"/>
<path d="M7520 4910 c0 -5 5 -10 10 -10 6 0 10 5 10 10 0 6 -4 10 -10 10 -5 0
-10 -4 -10 -10z"/>
<path d="M5288 4883 c7 -3 16 -2 19 1 4 3 -2 6 -13 5 -11 0 -14 -3 -6 -6z"/>
<path d="M5150 4850 c0 -5 7 -7 15 -4 8 4 15 8 15 10 0 2 -7 4 -15 4 -8 0 -15
-4 -15 -10z"/>
<path d="M7702 4797 c-5 -7 -14 -59 -21 -117 -7 -58 -23 -160 -36 -228 -23
-120 -24 -123 -5 -142 18 -18 19 -18 39 4 12 12 21 28 21 34 0 11 14 16 34 13
14 -3 72 27 87 45 7 9 12 31 11 50 -2 23 2 36 12 40 12 5 12 8 -2 24 -42 47
-46 54 -34 58 15 5 16 32 1 32 -6 0 -8 7 -5 16 4 9 -1 25 -9 34 -9 10 -17 26
-20 36 -20 95 -48 133 -73 101z"/>
<path d="M7795 4690 c-3 -5 -1 -10 4 -10 6 0 11 5 11 10 0 6 -2 10 -4 10 -3 0
-8 -4 -11 -10z"/>
<path d="M8331 4404 c0 -11 3 -14 6 -6 3 7 2 16 -1 19 -3 4 -6 -2 -5 -13z"/>
<path d="M7315 4390 c-3 -5 -1 -10 4 -10 6 0 11 5 11 10 0 6 -2 10 -4 10 -3 0
-8 -4 -11 -10z"/>
<path d="M6765 4080 c3 -5 11 -10 16 -10 6 0 7 5 4 10 -3 6 -11 10 -16 10 -6
0 -7 -4 -4 -10z"/>
<path d="M7852 4042 c-19 -15 -43 -29 -54 -29 -11 -1 -28 -9 -37 -17 -10 -9
-22 -16 -28 -16 -17 0 -22 -38 -7 -51 17 -14 58 3 87 36 18 21 78 105 74 105
-1 0 -17 -13 -35 -28z"/>
<path d="M6638 4053 c6 -2 18 -2 25 0 6 3 1 5 -13 5 -14 0 -19 -2 -12 -5z"/>
<path d="M6365 4030 c3 -5 8 -10 11 -10 2 0 4 5 4 10 0 6 -5 10 -11 10 -5 0
-7 -4 -4 -10z"/>
<path d="M6450 4036 c0 -9 30 -14 35 -6 4 6 -3 10 -14 10 -12 0 -21 -2 -21 -4z"/>
<path d="M9380 3985 c0 -9 5 -15 11 -13 6 2 11 8 11 13 0 5 -5 11 -11 13 -6 2
-11 -4 -11 -13z"/>
<path d="M7286 3425 c-3 -8 -1 -15 3 -15 5 0 11 7 15 15 3 8 1 15 -3 15 -5 0
-11 -7 -15 -15z"/>
<path d="M6268 3373 c7 -3 16 -2 19 1 4 3 -2 6 -13 5 -11 0 -14 -3 -6 -6z"/>
<path d="M7241 3292 c-1 -7 5 -20 13 -27 12 -12 15 -12 20 0 3 9 0 15 -8 15
-8 0 -17 6 -19 13 -4 9 -6 9 -6 -1z"/>
<path d="M7241 3234 c0 -11 3 -14 6 -6 3 7 2 16 -1 19 -3 4 -6 -2 -5 -13z"/>
<path d="M7180 3183 c0 -27 -6 -46 -20 -58 -23 -21 -26 -45 -5 -45 20 0 45 58
41 98 -4 48 -16 52 -16 5z"/>
<path d="M6830 3024 c0 -39 56 -57 93 -30 21 16 22 26 2 26 -8 0 -15 -5 -15
-11 0 -6 -7 -3 -16 5 -14 15 -64 23 -64 10z"/>
<path d="M7041 2974 c0 -11 3 -14 6 -6 3 7 2 16 -1 19 -3 4 -6 -2 -5 -13z"/>
<path d="M5646 2831 c-5 -7 -6 -13 -5 -14 2 -2 12 -9 22 -16 20 -16 23 -2 4
24 -10 13 -16 15 -21 6z"/>
<path d="M5690 2821 c0 -6 4 -13 10 -16 6 -3 7 1 4 9 -7 18 -14 21 -14 7z"/>
<path d="M5970 2761 c0 -5 5 -13 10 -16 6 -3 10 -2 10 4 0 5 -4 13 -10 16 -5
3 -10 2 -10 -4z"/>
<path d="M5802 2740 c7 -11 18 -20 25 -20 8 0 5 8 -7 20 -11 11 -22 20 -25 20
-3 0 0 -9 7 -20z"/>
<path d="M5895 2750 c3 -5 11 -10 16 -10 6 0 7 5 4 10 -3 6 -11 10 -16 10 -6
0 -7 -4 -4 -10z"/>
<path d="M5720 2740 c0 -5 5 -10 11 -10 5 0 7 5 4 10 -3 6 -8 10 -11 10 -2 0
-4 -4 -4 -10z"/>
<path d="M5750 2730 c0 -18 26 -59 49 -78 14 -11 14 -14 1 -22 -8 -5 -11 -12
-8 -15 10 -10 28 4 28 21 0 8 -9 23 -19 33 -11 11 -27 32 -35 48 -8 15 -15 21
-16 13z"/>
<path d="M5785 2710 c3 -5 11 -10 16 -10 6 0 7 5 4 10 -3 6 -11 10 -16 10 -6
0 -7 -4 -4 -10z"/>
<path d="M5728 2698 c-7 -20 6 -61 21 -66 9 -3 11 0 6 9 -5 7 -10 24 -11 37
-3 29 -10 37 -16 20z"/>
<path d="M5830 2676 c0 -2 7 -7 16 -10 8 -3 12 -2 9 4 -6 10 -25 14 -25 6z"/>
<path d="M5760 2612 c0 -4 10 -13 23 -21 22 -14 22 -14 3 8 -20 22 -26 25 -26
13z"/>
<path d="M5825 2600 c3 -5 8 -10 11 -10 2 0 4 5 4 10 0 6 -5 10 -11 10 -5 0
-7 -4 -4 -10z"/>
<path d="M3289 7213 c-12 -16 -12 -17 2 -6 9 7 19 10 22 6 4 -3 7 -1 7 5 0 17
-16 15 -31 -5z"/>
<path d="M780 6160 c0 -5 5 -10 11 -10 5 0 7 5 4 10 -3 6 -8 10 -11 10 -2 0
-4 -4 -4 -10z"/>
<path d="M960 6156 c0 -9 7 -16 16 -16 17 0 14 22 -4 28 -7 2 -12 -3 -12 -12z"/>
<path d="M965 6100 c3 -5 8 -10 11 -10 2 0 4 5 4 10 0 6 -5 10 -11 10 -5 0 -7
-4 -4 -10z"/>
<path d="M900 6085 c7 -8 17 -15 22 -15 6 0 5 7 -2 15 -7 8 -17 15 -22 15 -6
0 -5 -7 2 -15z"/>
<path d="M708 6063 c7 -3 16 -2 19 1 4 3 -2 6 -13 5 -11 0 -14 -3 -6 -6z"/>
<path d="M829 6068 c-6 -22 -5 -38 3 -38 5 0 7 -9 3 -19 -4 -15 1 -24 23 -35
28 -15 30 -14 36 7 3 14 0 26 -9 33 -8 6 -15 20 -15 30 0 16 -2 17 -10 4 -8
-13 -10 -12 -10 3 0 13 -17 26 -21 15z"/>
<path d="M950 6052 c0 -15 -2 -15 -10 -2 -5 8 -10 11 -10 5 1 -5 7 -19 15 -29
8 -11 15 -15 15 -8 0 6 7 9 15 6 10 -4 15 0 15 14 0 11 -8 22 -20 25 -14 4
-20 0 -20 -11z"/>
<path d="M1005 6040 c-3 -5 3 -10 15 -10 12 0 18 5 15 10 -3 6 -10 10 -15 10
-5 0 -12 -4 -15 -10z"/>
<path d="M997 6013 c-4 -3 -7 -11 -7 -17 0 -6 5 -5 12 2 6 6 9 14 7 17 -3 3
-9 2 -12 -2z"/>
<path d="M610 5980 c0 -5 5 -10 10 -10 6 0 10 5 10 10 0 6 -4 10 -10 10 -5 0
-10 -4 -10 -10z"/>
<path d="M556 5947 c5 -12 8 -32 7 -44 0 -13 3 -23 8 -23 13 0 49 -33 49 -45
0 -5 14 -24 30 -42 26 -28 28 -33 14 -41 -12 -7 -13 -11 -5 -16 7 -4 18 -2 26
4 16 13 35 5 35 -14 0 -8 8 -24 19 -37 l18 -23 30 25 c30 26 30 26 12 50 -10
13 -19 31 -19 39 0 13 2 13 9 1 8 -12 12 -12 25 2 15 15 14 16 -14 12 -22 -3
-33 2 -40 16 -6 10 -17 19 -25 19 -8 0 -14 3 -13 8 1 4 -6 19 -16 34 -14 21
-24 26 -41 22 -15 -4 -24 0 -28 11 -4 9 -2 15 6 14 6 -1 21 -1 32 0 19 1 19 2
-2 23 -18 17 -25 19 -37 9 -11 -9 -22 -9 -51 3 -36 15 -36 15 -29 -7z m44 -47
c0 -5 -2 -10 -4 -10 -3 0 -8 5 -11 10 -3 6 -1 10 4 10 6 0 11 -4 11 -10z m170
-179 c0 -6 -4 -13 -10 -16 -5 -3 -10 1 -10 9 0 9 5 16 10 16 6 0 10 -4 10 -9z"/>
<path d="M940 5938 c0 -14 7 -31 16 -39 13 -11 14 -9 8 17 -9 40 -24 54 -24
22z"/>
<path d="M780 5926 c0 -9 7 -16 16 -16 17 0 14 22 -4 28 -7 2 -12 -3 -12 -12z"/>
<path d="M840 5736 c0 -2 7 -6 15 -10 8 -3 15 -1 15 4 0 6 -7 10 -15 10 -8 0
-15 -2 -15 -4z"/>
<path d="M700 5700 c0 -5 5 -10 11 -10 5 0 7 5 4 10 -3 6 -8 10 -11 10 -2 0
-4 -4 -4 -10z"/>
<path d="M792 5668 c-19 -19 -14 -33 14 -34 20 -2 25 2 22 19 -4 25 -19 32
-36 15z"/>
<path d="M874 5667 c16 -12 16 -14 -3 -34 -17 -17 -18 -22 -6 -27 8 -3 15 -11
15 -18 0 -10 -2 -10 -8 -1 -5 8 -13 8 -32 -2 l-25 -14 33 -1 c19 0 35 -6 38
-15 9 -22 24 -18 24 6 0 16 4 19 17 15 10 -4 14 -4 10 0 -4 4 -2 13 5 21 9 11
7 18 -9 34 -18 19 -20 19 -20 2 0 -10 4 -24 10 -30 7 -10 4 -13 -12 -13 -17 0
-20 4 -15 30 7 30 -8 60 -29 60 -6 0 -3 -6 7 -13z"/>
<path d="M734 5635 c-18 -14 -18 -14 9 -15 15 0 27 4 27 9 0 18 -17 20 -36 6z"/>
<path d="M576 5582 c-3 -6 -1 -14 5 -17 15 -10 25 3 12 16 -7 7 -13 7 -17 1z"/>
<path d="M596 5532 c-3 -6 -1 -14 5 -17 15 -10 25 3 12 16 -7 7 -13 7 -17 1z"/>
<path d="M870 5488 c0 -21 26 -88 38 -100 7 -7 12 -8 12 -2 0 6 13 9 30 6 25
-3 30 -1 30 16 0 10 -12 33 -27 50 -30 32 -83 52 -83 30z"/>
<path d="M815 5450 c3 -5 11 -10 16 -10 6 0 7 5 4 10 -3 6 -11 10 -16 10 -6 0
-7 -4 -4 -10z"/>
<path d="M832 5412 c-18 -3 -22 -8 -16 -25 7 -24 22 -37 43 -37 8 0 20 -8 27
-17 9 -13 9 -6 -2 27 -18 53 -22 57 -52 52z"/>
<path d="M850 5252 c0 -12 19 -26 26 -19 2 2 -2 10 -11 17 -9 8 -15 8 -15 2z"/>
<path d="M945 5160 c3 -5 8 -10 11 -10 2 0 4 5 4 10 0 6 -5 10 -11 10 -5 0 -7
-4 -4 -10z"/>
<path d="M3632 4033 c-8 -15 -9 -24 -1 -28 15 -10 21 0 17 27 l-3 23 -13 -22z"/>
<path d="M3710 4031 c0 -5 7 -14 15 -21 13 -10 15 -9 15 9 0 12 -6 21 -15 21
-8 0 -15 -4 -15 -9z"/>
<path d="M3624 3979 c-7 -12 15 -31 31 -26 6 2 11 11 13 20 4 19 -32 24 -44 6z"/>
<path d="M3571 3924 c0 -11 3 -14 6 -6 3 7 2 16 -1 19 -3 4 -6 -2 -5 -13z"/>
<path d="M3901 3926 c-9 -10 -8 -16 4 -26 13 -11 15 -8 15 14 0 30 -3 32 -19
12z"/>
<path d="M3530 3914 c0 -8 5 -12 10 -9 6 3 10 10 10 16 0 5 -4 9 -10 9 -5 0
-10 -7 -10 -16z"/>
<path d="M3673 3869 c-25 -30 -30 -65 -10 -72 10 -4 10 -6 0 -6 -7 -1 -13 -8
-13 -17 0 -11 5 -14 18 -9 9 4 25 10 35 12 24 7 21 21 -5 25 -32 4 -30 34 2
30 26 -3 42 -22 50 -62 5 -22 18 -32 80 -60 8 -4 21 -5 28 -3 14 5 16 33 2 33
-5 0 -10 -5 -10 -11 0 -5 -4 -7 -10 -4 -5 3 -10 14 -10 25 0 11 -11 22 -30 29
-43 14 -37 29 10 27 22 -1 40 2 40 7 0 28 -71 57 -94 38 -12 -10 -36 3 -52 30
-8 14 -12 12 -31 -12z"/>
<path d="M4040 3890 c0 -5 5 -12 10 -15 13 -8 13 -52 0 -60 -12 -7 -4 -25 11
-25 5 0 9 9 9 19 0 11 5 21 12 23 7 3 9 11 3 24 -4 10 -7 24 -7 29 1 6 -7 11
-18 12 -11 1 -20 -2 -20 -7z"/>
<path d="M3930 3880 c0 -5 5 -10 10 -10 6 0 10 5 10 10 0 6 -4 10 -10 10 -5 0
-10 -4 -10 -10z"/>
<path d="M3601 3860 c-16 -9 -6 -30 15 -30 15 0 20 25 6 34 -4 2 -14 1 -21 -4z"/>
<path d="M3540 3850 c0 -5 5 -10 11 -10 5 0 7 5 4 10 -3 6 -8 10 -11 10 -2 0
-4 -4 -4 -10z"/>
<path d="M3880 3805 c0 -9 5 -15 11 -13 6 2 11 8 11 13 0 5 -5 11 -11 13 -6 2
-11 -4 -11 -13z"/>
<path d="M1925 1640 c3 -5 8 -10 11 -10 2 0 4 5 4 10 0 6 -5 10 -11 10 -5 0
-7 -4 -4 -10z"/>
<path d="M5965 2080 c-3 -5 -2 -10 4 -10 5 0 13 5 16 10 3 6 2 10 -4 10 -5 0
-13 -4 -16 -10z"/>
<path d="M5590 2042 c0 -12 19 -26 26 -19 2 2 -2 10 -11 17 -9 8 -15 8 -15 2z"/>
<path d="M5515 2020 c-4 -6 -11 -8 -16 -5 -5 4 -9 2 -9 -3 0 -5 17 -9 39 -8
33 0 36 2 22 13 -20 15 -28 16 -36 3z"/>
<path d="M5530 1984 c0 -3 9 -14 19 -26 l20 -20 -6 20 c-4 18 -33 40 -33 26z"/>
<path d="M5490 1976 c0 -2 7 -6 15 -10 8 -3 15 -1 15 4 0 6 -7 10 -15 10 -8 0
-15 -2 -15 -4z"/>
<path d="M5580 1936 c0 -2 7 -7 16 -10 8 -3 12 -2 9 4 -6 10 -25 14 -25 6z"/>
<path d="M5660 1922 c0 -4 10 -13 23 -21 22 -14 22 -14 3 8 -20 22 -26 25 -26
13z"/>
<path d="M5506 1904 c-8 -21 -8 -24 4 -24 5 0 14 9 20 20 8 16 8 20 -4 20 -7
0 -17 -7 -20 -16z"/>
<path d="M5560 1903 c1 -5 7 -19 15 -33 10 -18 14 -20 15 -8 0 23 -11 48 -21
48 -5 0 -9 -3 -9 -7z"/>
<path d="M5795 1880 c3 -5 8 -10 11 -10 2 0 4 5 4 10 0 6 -5 10 -11 10 -5 0
-7 -4 -4 -10z"/>
<path d="M5710 1864 c0 -11 29 -34 34 -26 2 4 -4 13 -15 20 -10 7 -19 10 -19
6z"/>
<path d="M5635 1850 c-3 -5 -1 -10 4 -10 6 0 11 5 11 10 0 6 -2 10 -4 10 -3 0
-8 -4 -11 -10z"/>
<path d="M5550 1843 c1 -18 28 -44 35 -34 3 6 -1 14 -9 17 -9 3 -13 10 -10 15
3 5 0 9 -5 9 -6 0 -11 -3 -11 -7z"/>
<path d="M5610 1792 c0 -6 9 -12 20 -15 11 -3 20 -3 20 -1 0 2 -9 8 -20 14
-11 6 -20 7 -20 2z"/>
<path d="M5666 1747 c3 -10 9 -15 12 -12 3 3 0 11 -7 18 -10 9 -11 8 -5 -6z"/>
<path d="M5620 1749 c0 -15 28 -60 33 -52 3 5 -3 20 -14 33 -10 14 -19 22 -19
19z"/>
<path d="M5857 1700 c3 -11 12 -20 20 -20 11 0 11 4 3 20 -6 11 -15 20 -19 20
-5 0 -7 -9 -4 -20z"/>
<path d="M5476 1657 c3 -10 9 -15 12 -12 3 3 0 11 -7 18 -10 9 -11 8 -5 -6z"/>
<path d="M5870 1561 c0 -6 4 -13 10 -16 6 -3 7 1 4 9 -7 18 -14 21 -14 7z"/>
<path d="M5800 1546 c0 -9 7 -16 16 -16 17 0 14 22 -4 28 -7 2 -12 -3 -12 -12z"/>
<path d="M5847 1544 c-3 -4 1 -17 10 -30 20 -32 27 -25 10 9 -8 15 -17 24 -20
21z"/>
<path d="M5770 1526 c0 -8 5 -18 10 -21 6 -3 10 1 10 9 0 8 -4 18 -10 21 -5 3
-10 -1 -10 -9z"/>
<path d="M5830 1510 c0 -5 5 -10 11 -10 5 0 7 5 4 10 -3 6 -8 10 -11 10 -2 0
-4 -4 -4 -10z"/>
<path d="M4928 1503 c7 -3 16 -2 19 1 4 3 -2 6 -13 5 -11 0 -14 -3 -6 -6z"/>
<path d="M5800 1501 c0 -6 5 -13 10 -16 6 -3 10 1 10 9 0 9 -4 16 -10 16 -5 0
-10 -4 -10 -9z"/>
<path d="M4985 1480 c-3 -5 1 -10 9 -10 8 0 18 5 21 10 3 6 -1 10 -9 10 -8 0
-18 -4 -21 -10z"/>
<path d="M4871 1454 c13 -16 29 -19 29 -5 0 5 -9 11 -21 14 -16 4 -18 3 -8 -9z"/>
<path d="M4820 1440 c0 -5 5 -10 10 -10 6 0 10 5 10 10 0 6 -4 10 -10 10 -5 0
-10 -4 -10 -10z"/>
<path d="M4970 1430 c0 -5 5 -10 10 -10 6 0 10 5 10 10 0 6 -4 10 -10 10 -5 0
-10 -4 -10 -10z"/>
<path d="M5756 1392 c-8 -13 21 -49 31 -38 4 5 2 11 -5 13 -6 3 -10 9 -7 13 3
5 1 11 -4 14 -5 4 -12 2 -15 -2z"/>
<path d="M4705 1340 c-3 -5 1 -10 10 -10 9 0 13 5 10 10 -3 6 -8 10 -10 10 -2
0 -7 -4 -10 -10z"/>
<path d="M4790 1340 c0 -5 5 -10 11 -10 5 0 7 5 4 10 -3 6 -8 10 -11 10 -2 0
-4 -4 -4 -10z"/>
<path d="M4900 1326 c0 -2 11 -6 25 -8 13 -3 22 -1 19 3 -5 9 -44 13 -44 5z"/>
<path d="M4883 1303 c9 -2 23 -2 30 0 6 3 -1 5 -18 5 -16 0 -22 -2 -12 -5z"/>
<path d="M5710 1250 c0 -19 3 -21 12 -12 9 9 9 15 0 24 -9 9 -12 7 -12 -12z"/>
<path d="M4730 1250 c-12 -7 -12 -12 -3 -21 15 -15 26 -7 21 15 -2 11 -7 13
-18 6z"/>
<path d="M5687 1218 c-2 -7 -1 -22 4 -33 6 -16 8 -14 8 13 1 33 -4 41 -12 20z"/>
<path d="M5040 1210 c0 -5 5 -10 11 -10 5 0 7 5 4 10 -3 6 -8 10 -11 10 -2 0
-4 -4 -4 -10z"/>
<path d="M4906 1201 c-4 -7 -5 -15 -2 -18 9 -9 19 4 14 18 -4 11 -6 11 -12 0z"/>
<path d="M5030 1182 c0 -12 19 -26 26 -19 2 2 -2 10 -11 17 -9 8 -15 8 -15 2z"/>
<path d="M5650 1180 c0 -5 5 -10 11 -10 5 0 7 5 4 10 -3 6 -8 10 -11 10 -2 0
-4 -4 -4 -10z"/>
<path d="M4910 1130 c0 -5 7 -10 16 -10 8 0 12 5 9 10 -3 6 -10 10 -16 10 -5
0 -9 -4 -9 -10z"/>
<path d="M5085 1130 c-3 -5 -2 -10 4 -10 5 0 13 5 16 10 3 6 2 10 -4 10 -5 0
-13 -4 -16 -10z"/>
<path d="M5462 1090 c0 -14 2 -19 5 -12 2 6 2 18 0 25 -3 6 -5 1 -5 -13z"/>
<path d="M5670 1061 c0 -6 5 -13 10 -16 6 -3 10 1 10 9 0 9 -4 16 -10 16 -5 0
-10 -4 -10 -9z"/>
<path d="M5370 1010 c0 -5 5 -10 11 -10 5 0 7 5 4 10 -3 6 -8 10 -11 10 -2 0
-4 -4 -4 -10z"/>
</g>
</svg>
